<?xml version="1.0" standalone="no"?>
<!DOCTYPE svg PUBLIC "-//W3C//DTD SVG 1.1//EN" "http://www.w3.org/Graphics/SVG/1.1/DTD/svg11.dtd" >
<svg>
<metadata>
Created by FontForge 20090914 at Fri Aug  2 13:29:45 2013
 By www-data
Copyright &#194;&#169; 1993, 1994, 2001 Adobe Systems Incorporated.  All Rights Reserved.
</metadata>
<defs>
<font id="ITCAvantGardeStd-Md" horiz-adv-x="590" >
  <font-face 
    font-family="ITC Avant Garde Std Md"
    font-weight="500"
    font-stretch="normal"
    units-per-em="1000"
    panose-1="2 11 6 2 2 2 2 2 2 4"
    ascent="740"
    descent="-260"
    x-height="544"
    cap-height="740"
    bbox="-127 -268 1154 983"
    underline-thickness="50"
    underline-position="-50"
    unicode-range="U+0020-U+FB02"
  />
<missing-glyph horiz-adv-x="500" 
d="M0 0v700h500v-700h-500zM250 395l170 255h-340zM280 350l170 -255v510zM80 50h340l-170 255zM50 605v-510l170 255z" />
    <glyph glyph-name="fi" unicode="fi" horiz-adv-x="508" 
d="M336 463l-152.999 -0.000976562v-463h-104v463h-74v81h74v37c0 31.333 4.83301 58.166 14.5 80.499s21 39.333 34 51s30 20.834 51 27.501s38.667 10.667 53 12s31.5 2 51.5 2v-82c-10.667 0 -18.834 -0.333008 -24.501 -1s-14.167 -2.66699 -25.5 -6
s-20 -8.16602 -26 -14.499s-11.5 -15.833 -16.5 -28.5s-7.5 -28 -7.5 -46v-32h257v-544h-104v463zM440.001 629.999h-104v110h104v-110z" />
    <glyph glyph-name="fl" unicode="fl" horiz-adv-x="508" 
d="M336 463l-152.999 -0.000976562v-463h-104v463h-74v81h74v37c0 31.333 4.83301 58.166 14.5 80.499s21 39.333 34 51s30 20.834 51 27.501s38.667 10.667 53 12s31.5 2 51.5 2v-82c-10.667 0 -18.834 -0.333008 -24.501 -1s-14.167 -2.66699 -25.5 -6
s-20 -8.16602 -26 -14.499s-11.5 -15.833 -16.5 -28.5s-7.5 -28 -7.5 -46v-32h153v195h104v-739h-104v463z" />
    <glyph glyph-name=".notdef" horiz-adv-x="500" 
d="M0 0v700h500v-700h-500zM250 395l170 255h-340zM280 350l170 -255v510zM80 50h340l-170 255zM50 605v-510l170 255z" />
    <glyph glyph-name="space" unicode=" " horiz-adv-x="295" 
 />
    <glyph glyph-name="exclam" unicode="!" horiz-adv-x="300" 
d="M204 740v-531h-108v531h108zM204 130v-130h-108v130h108z" />
    <glyph glyph-name="quotedbl" unicode="&#x22;" horiz-adv-x="405" 
d="M165 444h-81v296h81v-296zM321 444h-82v296h82v-296z" />
    <glyph glyph-name="numbersign" unicode="#" 
d="M401 249l-28 -204h-73l28 204h-107l-28 -204h-75l29 204h-122l8 71h124l14 102h-123l9 72h124l26 186h74l-26 -186h107l26 186h74l-26 -186h129l-9 -72h-131l-14 -102h129l-8 -71h-131zM338 320l14 102h-107l-14 -102h107z" />
    <glyph glyph-name="dollar" unicode="$" 
d="M343 811l-0.00488281 -92.001c46 -8 82 -28.167 108 -60.5s39.667 -71.166 41 -116.499h-99c-2.66699 29.333 -13.5 52.5 -32.5 69.5s-39.833 25.5 -62.5 25.5c-25.333 0 -47.166 -9.16699 -65.499 -27.5s-27.5 -41.166 -27.5 -68.499c0 -14 2.66699 -26.667 8 -38
s11.333 -20.666 18 -27.999s17.5 -14.666 32.5 -21.999s27.833 -13 38.5 -17s27.334 -9.66699 50.001 -17c48 -17.333 86.167 -42.333 114.5 -75s42.5 -71 42.5 -115c0 -45.333 -14.833 -86.833 -44.5 -124.5s-70.167 -62.167 -121.5 -73.5v-98h-88v98
c-52 6 -93.667 27.833 -125 65.5s-47.666 80.5 -48.999 128.5h108c2.66699 -34.667 14.5 -61.834 35.5 -81.501s45.5 -29.5 73.5 -29.5c29.333 0 53.833 10.167 73.5 30.5s29.5 44.833 29.5 73.5c0 20 -4.16699 37.5 -12.5 52.5s-21.666 27.833 -39.999 38.5
s-34.166 18.667 -47.499 24s-33.333 12.333 -60 21c-95.333 28.667 -143 87.667 -143 177c0 51.333 15 93.166 45 125.499s67.333 53.166 112 62.499v92h88z" />
    <glyph glyph-name="percent" unicode="%" horiz-adv-x="796" 
d="M30 581v1c0 48 16.5 88.667 49.5 122s73.833 50 122.5 50s89.5 -16.667 122.5 -50s49.5 -74.333 49.5 -123s-16.5 -89.5 -49.5 -122.5s-73.833 -49.5 -122.5 -49.5c-48 0 -88.667 16.5 -122 49.5s-50 73.833 -50 122.5zM104 581l0.000976562 -1
c0 -28 9.33301 -51.5 28 -70.5s42 -28.5 70 -28.5s51.5 9.66699 70.5 29s28.5 43.333 28.5 72s-9.33301 52.5 -28 71.5s-42.334 28.5 -71.001 28.5s-52.167 -9.5 -70.5 -28.5s-27.5 -43.167 -27.5 -72.5zM421.001 159v1c0 48 16.667 88.667 50 122s74.333 50 123 50
c48 0 88.667 -16.667 122 -50s50 -74.333 50 -123s-16.667 -89.667 -50 -123s-74 -50 -122 -50c-48.667 0 -89.667 16.5 -123 49.5s-50 74.167 -50 123.5zM494.001 159v-1c0 -28 9.5 -51.667 28.5 -71s42.833 -29 71.5 -29c28 0 51.333 9.66699 70 29s28 43.333 28 72
s-9.33301 52.5 -28 71.5s-42 28.5 -70 28.5c-28.667 0 -52.5 -9.5 -71.5 -28.5s-28.5 -42.833 -28.5 -71.5zM622.001 740l-374 -740h-78l374 740h78z" />
    <glyph glyph-name="ampersand" unicode="&#x26;" horiz-adv-x="741" 
d="M578 449h110.002l-127 -241l148 -151l-72 -70l-132 136c-22.667 -43.333 -50.5 -77 -83.5 -101s-77.167 -36 -132.5 -36c-70.667 0 -127.834 20.667 -171.501 62s-65.5 91 -65.5 149c0 28 5.16699 54 15.5 78s24.666 44.833 42.999 62.5s35.333 32 51 43
s33.834 21.833 54.501 32.5c-55.333 58.667 -83.666 113.667 -84.999 165c0 48.667 17.667 90.167 53 124.5s78.666 51.5 129.999 51.5s94.333 -17 129 -51s52 -74.667 52 -122c0 -23.333 -3.83301 -44.5 -11.5 -63.5s-19.167 -35.5 -34.5 -49.5s-28.833 -25 -40.5 -33
s-26.834 -17 -45.501 -27l128 -130zM315.002 666l-0.998047 -0.00195312c-23.333 0 -42.5 -8.16699 -57.5 -24.5s-22.5 -35.5 -22.5 -57.5c0 -7.33301 0.666992 -14.166 2 -20.499s3.66602 -13 6.99902 -20s6.16602 -12.667 8.49902 -17s6.33301 -10 12 -17l11.5 -14
c2 -2.33301 6.83301 -7.33301 14.5 -15s11.834 -12.167 12.501 -13.5c34.667 19.333 59.5 36.833 74.5 52.5s22.5 36.5 22.5 62.5c0 22.667 -7.83301 42.334 -23.5 59.001s-35.834 25 -60.501 25zM435.004 190.998l-154 157c-76.667 -38.667 -115 -86 -115 -142
c0 -33.333 12 -61.666 36 -84.999s54.333 -35 91 -35c34.667 0 62.5 8.66699 83.5 26s40.5 43.666 58.5 78.999z" />
    <glyph glyph-name="quotesingle" unicode="'" horiz-adv-x="233" 
d="M157 444h-81v296h81v-296z" />
    <glyph glyph-name="parenleft" unicode="(" horiz-adv-x="451" 
d="M413 754v-116.998c-59.333 -32.667 -110.333 -84.167 -153 -154.5s-64 -150.166 -64 -239.499c0 -88 21 -167.333 63 -238s93.333 -122.334 154 -155.001v-118c-72 31.333 -133.5 75 -184.5 131s-88.167 116.333 -111.5 181s-35 131.334 -35 200.001
c0 67.333 11.833 133.666 35.5 198.999s61.167 126.166 112.5 182.499s112.333 99.166 183 128.499z" />
    <glyph glyph-name="parenright" unicode=")" horiz-adv-x="451" 
d="M38 -268v115.998c60 32 111.333 83.333 154 154s64 150.667 64 240c0 88 -21.167 167.333 -63.5 238s-93.833 122.334 -154.5 155.001v119c72 -32 133.5 -76 184.5 -132s88.167 -116.333 111.5 -181s35 -131.334 35 -200.001c0 -67.333 -11.833 -133.666 -35.5 -198.999
s-61.167 -126.166 -112.5 -182.499s-112.333 -98.833 -183 -127.5z" />
    <glyph glyph-name="asterisk" unicode="*" horiz-adv-x="627" 
d="M350 740l-18 -140l113 85l34 -63l-126 -53l127 -53l-37 -65l-112 86l19 -139h-73l18 140l-111 -87l-37 65l127 54l-127 52l35 63l114 -84l-19 139h73z" />
    <glyph glyph-name="plus" unicode="+" horiz-adv-x="600" 
d="M350 504v-202h201v-101h-201v-201h-100v201h-201v101h201v202h100z" />
    <glyph glyph-name="comma" unicode="," horiz-adv-x="297" 
d="M204 131l-83 -207h-90l63 207h110z" />
    <glyph glyph-name="hyphen" unicode="-" horiz-adv-x="274" 
d="M0 335h274v-103h-274v103z" />
    <glyph glyph-name="period" unicode="." horiz-adv-x="297" 
d="M204 130v-130h-109v130h109z" />
    <glyph glyph-name="slash" unicode="/" horiz-adv-x="559" 
d="M70 -100l303 840h117l-303 -840h-117z" />
    <glyph glyph-name="zero" unicode="0" 
d="M36 247l0.00292969 241.998c0 50 9.33301 93.5 28 130.5s42.5 64.667 71.5 83s56.833 31.5 83.5 39.5s52 12 76 12c29.333 0 58.5 -5.16699 87.5 -15.5s56.667 -25.5 83 -45.5s47.666 -47.333 63.999 -82s24.5 -74 24.5 -118v-246c0 -38 -6 -72.5 -18 -103.5
s-27.167 -56 -45.5 -75s-39.333 -35 -63 -48s-46.334 -22 -68.001 -27s-42.5 -7.5 -62.5 -7.5c-26.667 0 -54.167 4.66699 -82.5 14s-56.333 23.333 -84 42s-50.334 45.834 -68.001 81.501s-26.5 76.834 -26.5 123.501zM153.003 492.998l0.000976562 -249
c0 -43.333 13 -79.833 39 -109.5s60.333 -44.5 103 -44.5c39.333 0 72.666 15 99.999 45s41 66.333 41 109v252c0 16 -2.16699 32.167 -6.5 48.5s-11.5 32.833 -21.5 49.5s-25 30.167 -45 40.5s-43.333 15.5 -70 15.5c-43.333 0 -77.5 -15 -102.5 -45
s-37.5 -67.333 -37.5 -112z" />
    <glyph glyph-name="one" unicode="1" 
d="M247 0v640h-140v100h258v-740h-118z" />
    <glyph glyph-name="two" unicode="2" 
d="M54 0l-0.00292969 92.999l229 215c26 23.333 43.833 39.833 53.5 49.5s22.834 24.334 39.501 44.001s28.334 38.667 35.001 57s10.334 37.833 11.001 58.5c0 41.333 -12 73.833 -36 97.5s-54.667 35.5 -92 35.5c-38.667 0 -69 -14.667 -91 -44s-33.667 -68 -35 -116h-113
c2 72 21.333 130.667 58 176c24 32 53.5 54.667 88.5 68s69.167 20 102.5 20c71.333 0 128.5 -22 171.5 -66s64.167 -98.333 63.5 -163c-0.666992 -40.667 -10 -77.667 -28 -111s-47.333 -70 -88 -110l-208 -204h327v-100h-488z" />
    <glyph glyph-name="three" unicode="3" 
d="M188 551h-116c1.33301 46.667 14.166 86 38.499 118s52 54.167 83 66.5s63.167 18.5 96.5 18.5c59.333 0 108.333 -18 147 -54s58 -81 58 -135c0 -68.667 -33.333 -120.667 -100 -156c30.667 -10.667 56.667 -25 78 -43s36.333 -37 45 -57s14.5 -36.833 17.5 -50.5
s4.5 -27.167 4.5 -40.5c0 -66 -24.333 -121.167 -73 -165.5s-108.667 -66.5 -180 -66.5c-40 0 -79 8.16699 -117 24.5s-68 39.833 -90 70.5c-28 40 -42.667 85.667 -44 137h119c2 -36.667 15.5 -67 40.5 -91s56.5 -36.333 94.5 -37c40.667 0 72.834 12.667 96.501 38
s35.5 57.333 35.5 96c0 37.333 -14.333 68.5 -43 93.5s-64 37.5 -106 37.5h-55v89h35c37.333 0 67.5 10.5 90.5 31.5s34.5 45.5 34.5 73.5c0 28.667 -8.33301 52.667 -25 72s-39 29 -67 29c-32 0 -55.833 -10 -71.5 -30s-24.5 -43 -26.5 -69z" />
    <glyph glyph-name="four" unicode="4" 
d="M363 0v136h-353v88l351 516h116v-510h79v-94h-79v-136h-114zM131 230h239v367z" />
    <glyph glyph-name="five" unicode="5" 
d="M127 740l375.001 0.000976562v-100h-284l-33 -181c39.333 26 81.333 39 126 39c75.333 0 135.166 -25.833 179.499 -77.5s66.5 -109.167 66.5 -172.5c0 -68 -24.5 -128.667 -73.5 -182s-113.5 -80 -193.5 -80c-67.333 0 -126 20.167 -176 60.5s-80 93.833 -90 160.5h118
c8 -34.667 25.833 -62.834 53.5 -84.501s58.167 -32.5 91.5 -32.5c41.333 0 77.166 15.333 107.499 46s45.5 67 45.5 109c0 42.667 -14.667 79.167 -44 109.5s-65.666 45.5 -108.999 45.5c-54 0 -97.333 -24.667 -130 -74l-96 24z" />
    <glyph glyph-name="six" unicode="6" 
d="M294 740l134.999 0.000976562l-143 -205l-34 -48c20.667 12.667 46 19 76 19c62.667 0 117.834 -23 165.501 -69s71.5 -106.667 71.5 -182c0 -76 -25.833 -139.833 -77.5 -191.5s-115.167 -77.5 -190.5 -77.5c-90.667 0 -160.667 30.667 -210 92
c-40.667 47.333 -61 105.666 -61 174.999c0 62 22 126 66 192zM141.999 244.001l-0.000976562 -1c0 -44 14.5 -80.5 43.5 -109.5s64.833 -43.5 107.5 -43.5c44 0 80.667 15 110 45s44 66.667 44 110c0 46 -15 83.667 -45 113s-65.667 44 -107 44
c-39.333 0 -74.666 -14 -105.999 -42s-47 -66.667 -47 -116z" />
    <glyph glyph-name="seven" unicode="7" 
d="M75 740h442v-92l-291 -648h-129l298 640h-320v100z" />
    <glyph glyph-name="eight" unicode="8" 
d="M76 562v1c0 51.333 20 96 60 134s93 57 159 57s118.833 -19 158.5 -57s59.5 -83 59.5 -135c0 -35.333 -8.66699 -65.833 -26 -91.5s-38 -45.167 -62 -58.5c38 -15.333 67.333 -39.833 88 -73.5s31 -72.167 31 -115.5c-0.666992 -68 -24.5 -124.5 -71.5 -169.5
s-106.167 -67.5 -177.5 -67.5c-72 0 -131.5 22.5 -178.5 67.5s-70.833 101.5 -71.5 169.5c0.666992 42.667 11.167 81 31.5 115s49.833 58.667 88.5 74c-24 13.333 -44.833 32.833 -62.5 58.5s-26.5 56.167 -26.5 91.5zM191 553v-0.999023
c0 -28.667 10.167 -52.834 30.5 -72.501s44.833 -29.5 73.5 -29.5s53.167 9.83301 73.5 29.5s30.5 44.167 30.5 73.5s-10.167 54 -30.5 74s-44.833 30 -73.5 30s-53.167 -10 -73.5 -30s-30.5 -44.667 -30.5 -74zM163 224.001l0.00195312 -1c0 -35.333 12.667 -66.333 38 -93
s56.666 -40 93.999 -40s68.666 13.333 93.999 40s38 58 38 94c0 36.667 -12.5 68.167 -37.5 94.5s-56.5 39.5 -94.5 39.5s-69.5 -13.167 -94.5 -39.5s-37.5 -57.833 -37.5 -94.5z" />
    <glyph glyph-name="nine" unicode="9" 
d="M297 0h-134.999l143 205l34 48c-20.667 -12.667 -46 -19 -76 -19c-62.667 0 -117.834 22.833 -165.501 68.5s-71.5 106.5 -71.5 182.5s25.833 139.833 77.5 191.5s115.167 77.5 190.5 77.5c90.667 0 160.667 -30.667 210 -92c40 -46.667 60 -105 60 -175
c0 -62.667 -21.667 -126.667 -65 -192zM448.001 496l-0.00195312 0.999023c0 44 -14.333 80.5 -43 109.5s-64.667 43.5 -108 43.5s-79.666 -15 -108.999 -45s-44 -66.667 -44 -110c0 -45.333 14.833 -82.666 44.5 -111.999s64.834 -44 105.501 -44c40 0 75.667 14 107 42
s47 66.333 47 115z" />
    <glyph glyph-name="colon" unicode=":" horiz-adv-x="297" 
d="M204 544v-130h-109v130h109zM204 130v-130h-109v130h109z" />
    <glyph glyph-name="semicolon" unicode=";" horiz-adv-x="297" 
d="M203 544v-130h-109v130h109zM205 131l-89 -207h-85l64 207h110z" />
    <glyph glyph-name="less" unicode="&#x3c;" horiz-adv-x="600" 
d="M48 302l504 223v-110l-397 -163l397 -163v-110l-504 223v100z" />
    <glyph glyph-name="equal" unicode="=" horiz-adv-x="600" 
d="M49 418h502v-100h-502v100zM49 186h502v-101h-502v101z" />
    <glyph glyph-name="greater" unicode="&#x3e;" horiz-adv-x="600" 
d="M48 89l397 164l-397 162v110l504 -223v-100l-504 -223v110z" />
    <glyph glyph-name="question" unicode="?" horiz-adv-x="567" 
d="M322 204h-110.002c1.33301 35.333 9 67.5 23 96.5s39 60.833 75 95.5c20.667 20.667 35.834 36.5 45.501 47.5s18.5 24.333 26.5 40s12 31.834 12 48.501c0 32.667 -10.333 59.667 -31 81s-48 32 -82 32c-31.333 0 -58 -9.5 -80 -28.5s-35.333 -45.167 -40 -78.5
c-1.33301 -12 -2 -20.333 -2 -25h-114v22c4 67.333 29.667 120.666 77 159.999s102 59 164 59c66 0 120.333 -21 163 -63s64 -91.667 64 -149c0 -20.667 -3 -40 -9 -58s-15.833 -35.833 -29.5 -53.5s-25 -31.334 -34 -41.001s-23.167 -23.5 -42.5 -41.5
c-31.333 -30 -51.666 -55.667 -60.999 -77s-14.333 -43.666 -15 -66.999zM320.998 130v-130h-109v130h109z" />
    <glyph glyph-name="at" unicode="@" horiz-adv-x="770" 
d="M657 146l22.9941 -51c-37.333 -38 -82.666 -65.833 -135.999 -83.5s-100 -26.5 -140 -26.5c-61.333 0 -117.166 11.333 -167.499 34s-91.166 52.334 -122.499 89.001s-55.333 77.167 -72 121.5s-25 89.5 -25 135.5c0 106 36.667 197.5 110 274.5s166 115.5 278 115.5
c96.667 0 179 -30 247 -90s102 -137 102 -231c0 -78.667 -23.167 -144 -69.5 -196s-94.166 -78 -143.499 -78c-21.333 0 -40.666 5.83301 -57.999 17.5s-28 30.167 -32 55.5c-31.333 -47.333 -72.333 -71 -123 -71c-34.667 0 -65.667 13.667 -93 41s-41 65.666 -41 114.999
c0 62 20 119 60 171s87.667 78 143 78c52 0 86.333 -23.333 103 -70l16 56h70l-64 -242c0 -0.666992 -1.5 -7.66699 -4.5 -21s-4.5 -22.666 -4.5 -27.999c-1.33301 -26 11.667 -39 39 -39c30 0 60.5 20.167 91.5 60.5s46.5 90.166 46.5 149.499
c0 78.667 -27.833 141.667 -83.5 189s-121.834 71 -198.501 71c-90.667 0 -167 -32 -229 -96s-93 -141.667 -93 -233c0 -36.667 6.33301 -73 19 -109s31.334 -69.833 56.001 -101.5s58 -57.334 100 -77.001s89.333 -29.5 142 -29.5c46.667 0 92.834 8.33301 138.501 25
s84.167 41.334 115.5 74.001zM265.994 320l0.00292969 -1.00195c0 -32.667 8 -56.5 24 -71.5s34 -22.5 54 -22.5c29.333 0 53.166 9.66699 71.499 29s31.833 42 40.5 68c16.667 52.667 25 85.334 25 98.001c-0.666992 24.667 -8.33398 44.834 -23.001 60.501
s-32.334 23.5 -53.001 23.5c-35.333 0 -67.333 -18.667 -96 -56s-43 -80 -43 -128z" />
    <glyph glyph-name="A" unicode="A" horiz-adv-x="726" 
d="M204 175l-68 -175h-128l304 740h107l299 -740h-128l-70 175h-316zM488 270l-127 333l-125 -333h252z" />
    <glyph glyph-name="B" unicode="B" horiz-adv-x="599" 
d="M71 0v739.999h221c68 0 120.333 -13.333 157 -40c50 -30.667 75 -80.667 75 -150c0 -70 -31.333 -121.667 -94 -155c30 -9.33301 54.833 -22.666 74.5 -39.999s33.5 -36 41.5 -56s13.167 -36.333 15.5 -49s3.5 -25.334 3.5 -38.001
c-1.33301 -77.333 -31.333 -133.666 -90 -168.999c-25.333 -17.333 -51 -28.833 -77 -34.5s-62.667 -8.5 -110 -8.5h-217zM189 635.999v-203h97c33.333 0 58.333 4 75 12c33.333 18 50 48.333 50 91c0 21.333 -4.83301 39.5 -14.5 54.5s-21.5 25.833 -35.5 32.5
c-17.333 8.66699 -43.333 13 -78 13h-94zM189 333.999v-230h119c32.667 0 59 4 79 12c42.667 18.667 64.334 53 65.001 103c0 50 -21.667 84 -65 102c-20.667 8.66699 -50.334 13 -89.001 13h-109z" />
    <glyph glyph-name="C" unicode="C" horiz-adv-x="811" 
d="M653 225l124.002 -0.000976562c-23.333 -69.333 -67.166 -126.5 -131.499 -171.5s-137.5 -67.5 -219.5 -67.5c-110 0 -202 37.5 -276 112.5s-111 165.833 -111 272.5c0 68 16 131 48 189s77.833 104.833 137.5 140.5s126.5 53.5 200.5 53.5
c47.333 0 91.833 -7.83301 133.5 -23.5s76.667 -35.834 105 -60.501s52.166 -50.5 71.499 -77.5s33.666 -54.167 42.999 -81.5h-125c-16.667 32.667 -44.667 63.834 -84 93.501s-87.666 44.834 -144.999 45.501c-76.667 0 -140.334 -27.333 -191.001 -82
s-76 -120.334 -76 -197.001c0 -78 25.5 -144.333 76.5 -199s114.833 -82 191.5 -82c33.333 0 64.166 5.33301 92.499 16s51.833 24.834 70.5 42.501s32.5 32 41.5 43s16.833 22.167 23.5 33.5z" />
    <glyph glyph-name="D" unicode="D" horiz-adv-x="724" 
d="M71 0v740h229c140 0 241.333 -40 304 -120c54 -64.667 81 -147.667 81 -249c0 -113.333 -31.5 -203.5 -94.5 -270.5s-157.167 -100.5 -282.5 -100.5h-237zM189 636l-0.000976562 -532h125c84 0 147.333 24 190 72s64 112.333 64 193c0 77.333 -20 140.333 -60 189
c-45.333 52 -109.666 78 -192.999 78h-126z" />
    <glyph glyph-name="E" unicode="E" horiz-adv-x="537" 
d="M71 0v740h414v-104h-296v-210h292v-103h-292v-219h296v-104h-414z" />
    <glyph glyph-name="F" unicode="F" horiz-adv-x="493" 
d="M71 0v740h386v-104h-268v-216h264v-103h-264v-317h-118z" />
    <glyph glyph-name="G" unicode="G" horiz-adv-x="854" 
d="M783 530l-133.003 -0.000976562c-19.333 28 -42 51.333 -68 70c-46 33.333 -98 50 -156 50c-73.333 0 -136.833 -25.667 -190.5 -77s-80.5 -118.333 -80.5 -201c0 -85.333 26.833 -153.666 80.5 -204.999s117.167 -77 190.5 -77c66.667 0 123.667 18.333 171 55
c46.667 35.333 75.667 79.333 87 132h-319v96h456c0 -62 -11 -117.333 -33 -166c-32.667 -70.667 -82.5 -125.167 -149.5 -163.5s-137.5 -57.5 -211.5 -57.5c-109.333 0 -201.5 37.167 -276.5 111.5s-112.5 165.833 -112.5 274.5c0 109.333 37.833 200.333 113.5 273
s167.834 109 276.501 109c78.667 0 150.834 -21.167 216.501 -63.5s111.834 -95.833 138.501 -160.5z" />
    <glyph glyph-name="H" unicode="H" horiz-adv-x="698" 
d="M189 0h-118v740h118v-312h319v312h118v-740h-118v324h-319v-324z" />
    <glyph glyph-name="I" unicode="I" horiz-adv-x="261" 
d="M71 0v740h118v-740h-118z" />
    <glyph glyph-name="J" unicode="J" horiz-adv-x="522" 
d="M450 740l0.000976562 -483.001c0 -70 -7 -120.667 -21 -152c-16 -32.667 -38.667 -58.667 -68 -78c-40 -27.333 -85 -41 -135 -41c-14.667 0 -30.834 2 -48.501 6s-38.5 11.167 -62.5 21.5s-45.667 27.5 -65 51.5s-32.333 53 -39 87c-2 8.66699 -3.66699 23 -5 43h126
c0 -2.66699 0.666992 -8.66699 2 -18c7.33301 -29.333 20.333 -51.166 39 -65.499s38.334 -21.5 59.001 -21.5c23.333 0.666992 42.666 6.5 57.999 17.5s26 24.5 32 40.5c7.33301 21.333 11 49 11 83v509h117z" />
    <glyph glyph-name="K" unicode="K" horiz-adv-x="630" 
d="M89 0v740h118v-350l271 350h125l-288 -369l317 -371h-145l-280 341v-341h-118z" />
    <glyph glyph-name="L" unicode="L" horiz-adv-x="458" 
d="M74 0v740h118v-636h261v-104h-379z" />
    <glyph glyph-name="M" unicode="M" horiz-adv-x="923" 
d="M181 0h-110v740h162l230 -573l227 573h161v-740h-109l3 624l-245 -624h-77l-245 624z" />
    <glyph glyph-name="N" unicode="N" horiz-adv-x="750" 
d="M182 740l384 -563l-2 563h114v-740h-108l-387 564l2 -564h-114v740h111z" />
    <glyph glyph-name="O" unicode="O" horiz-adv-x="851" 
d="M38 365l-0.000976562 0.998047c0 114 37.833 207.167 113.5 279.5s166.834 108.5 273.501 108.5c110 0 202.167 -37.167 276.5 -111.5s111.5 -165.166 111.5 -272.499s-37.333 -198.166 -112 -272.499s-167 -111.5 -277 -111.5s-201.833 37.167 -275.5 111.5
s-110.5 163.5 -110.5 267.5zM154.999 370.998v-1c0 -78 25.833 -144.167 77.5 -198.5s116.5 -81.5 194.5 -81.5s142.167 27.833 192.5 83.5s75.5 120.834 75.5 195.501c0 75.333 -25.167 141 -75.5 197s-114.833 84 -193.5 84s-143.5 -27.333 -194.5 -82
s-76.5 -120.334 -76.5 -197.001z" />
    <glyph glyph-name="P" unicode="P" horiz-adv-x="580" 
d="M67 740l211 0.000976562c56 0 99 -3.83301 129 -11.5s56.333 -20.5 79 -38.5c25.333 -20 45.333 -46.333 60 -79s22 -67 22 -103c0 -35.333 -7.16699 -69.833 -21.5 -103.5s-32.833 -59.834 -55.5 -78.501c-25.333 -20 -52.833 -34.167 -82.5 -42.5
s-69.5 -12.5 -119.5 -12.5h-104v-271h-118v740zM185 636.001v-261h102c50 0 88.333 8.33301 115 25c15.333 8.66699 28 22.5 38 41.5s15 40.5 15 64.5c0 50 -18 85.333 -54 106c-26.667 16 -66 24 -118 24h-98z" />
    <glyph glyph-name="Q" unicode="Q" horiz-adv-x="873" 
d="M868 84l0.000976562 -96.999c-24 1.33301 -42.667 2.66602 -56 3.99902c-60.667 4.66699 -114.334 24.667 -161.001 60c-67.333 -43.333 -139.666 -65 -216.999 -65c-76.667 0 -145.167 18.333 -205.5 55s-106.166 83.834 -137.499 141.501s-47 119.5 -47 185.5
c0 105.333 36.667 196 110 272s165.666 114 276.999 114s204.166 -37.5 278.499 -112.5s111.5 -164.5 111.5 -268.5c0 -94 -30.333 -176.667 -91 -248c33.333 -22.667 79.333 -36.334 138 -41.001zM432.001 650.001h-1.00098c-68.667 0 -127.5 -22.167 -176.5 -66.5
s-77.5 -101.833 -85.5 -172.5c-1.33301 -26.667 0.333984 -50.667 5.00098 -72c50 16.667 95.667 25 137 25c68 0 129.667 -17.333 185 -52c24 -14.667 71.333 -52 142 -112c44 45.333 66 103 66 173c0 80.667 -26.5 147 -79.5 199s-117.167 78 -192.5 78zM433 90.001
l1.00195 -0.00195312c54 0 98 12.333 132 37c-12.667 13.333 -42.334 39.333 -89.001 78c-54 39.333 -113.333 59 -178 59c-38.667 0 -74.667 -7 -108 -21c13.333 -29.333 30.5 -54.666 51.5 -75.999s43.167 -37.166 66.5 -47.499s45.166 -17.833 65.499 -22.5
s39.833 -7 58.5 -7z" />
    <glyph glyph-name="R" unicode="R" horiz-adv-x="609" 
d="M67 0v739.999h209c102 0 173.667 -14.333 215 -43c30.667 -20 54.667 -47.833 72 -83.5s26 -74.5 26 -116.5c0 -53.333 -14 -100.333 -42 -141c-30.667 -42.667 -78.334 -69.667 -143.001 -81l174 -275h-125l-203 334h26c74 0 123.333 10.667 148 32
c34 30 51 70.333 51 121c0 25.333 -5.66699 49.333 -17 72s-26.666 40.334 -45.999 53.001c-25.333 16 -67.333 24 -126 24h-101v-636h-118z" />
    <glyph glyph-name="S" unicode="S" horiz-adv-x="548" 
d="M34 219l117.003 -0.00390625c2 -26 7.66699 -48.333 17 -67s20.833 -32.5 34.5 -41.5s26.5 -15.333 38.5 -19s23.667 -5.5 35 -5.5c33.333 0 62.166 11.5 86.499 34.5s36.5 50.833 36.5 83.5c0 18 -3.33301 33.667 -10 47s-17.167 24.833 -31.5 34.5
s-29 17.834 -44 24.501s-34.833 14.334 -59.5 23.001c-8.66699 2.66699 -15.334 5 -20.001 7c-17.333 5.33301 -31.666 10.333 -42.999 15s-27 12.667 -47 24s-36.167 23.5 -48.5 36.5s-23.5 30.5 -33.5 52.5s-15 46.333 -15 73c-0.666992 65.333 22.333 117.166 69 155.499
s101.334 57.5 164.001 57.5c25.333 0 50 -3.66699 74 -11s47 -18.5 69 -33.5s40.333 -36.333 55 -64s23 -59.5 25 -95.5h-116c-2.66699 12.667 -5.83398 23.834 -9.50098 33.501s-9.33398 20.5 -17.001 32.5s-18.667 21.333 -33 28s-31.5 10 -51.5 10
c-30.667 0 -57 -9.66699 -79 -29s-33 -44.333 -33 -75c0 -17.333 2.83301 -31.833 8.5 -43.5s16.667 -22.667 33 -33s32.166 -18.666 47.499 -24.999s40 -15.833 74 -28.5c4.66699 -2 8.33398 -3.33301 11.001 -4c27.333 -11.333 50 -22.166 68 -32.499
s36.167 -23.5 54.5 -39.5s32.166 -35.167 41.499 -57.5s14 -47.833 14 -76.5c0 -63.333 -21 -116.5 -63 -159.5s-100.667 -64.5 -176 -64.5c-73.333 0 -132 21 -176 63s-66.333 98.667 -67 170z" />
    <glyph glyph-name="T" unicode="T" horiz-adv-x="474" 
d="M178 0v636h-170v104h458v-104h-170v-636h-118z" />
    <glyph glyph-name="U" unicode="U" horiz-adv-x="656" 
d="M70 740l118.001 0.00195312v-462c0 -20 0.333008 -35.333 1 -46s3 -23.834 7 -39.501s10.333 -30.167 19 -43.5c24.667 -39.333 62.667 -59 114 -59c52 0 89.333 19 112 57c8.66699 13.333 15.167 27.833 19.5 43.5s6.83301 29 7.5 40s1 26.833 1 47.5v462h117v-462
c0.666992 -52.667 -4.83301 -97.334 -16.5 -134.001s-32.834 -67.667 -63.501 -93c-48 -43.333 -106.667 -65 -176 -65c-76 0 -135.667 21.333 -179 64c-33.333 30 -55.333 62.5 -66 97.5s-15.667 78.5 -15 130.5v462z" />
    <glyph glyph-name="V" unicode="V" horiz-adv-x="697" 
d="M289 0l-277 740h122l214 -596l215 596h122l-279 -740h-117z" />
    <glyph glyph-name="W" unicode="W" horiz-adv-x="939" 
d="M214 0l-200 740h120l146 -579l145 579h89l147 -580l144 580h120l-204 -740h-109l-143 561l-143 -561h-112z" />
    <glyph glyph-name="X" unicode="X" horiz-adv-x="668" 
d="M10 0l256 386l-236 354h134l170 -267l169 267h133l-233 -356l255 -384h-134l-194 301l-189 -301h-131z" />
    <glyph glyph-name="Y" unicode="Y" horiz-adv-x="605" 
d="M244 0v263l-232 477h128l163 -366l163 366h128l-232 -477v-263h-118z" />
    <glyph glyph-name="Z" unicode="Z" horiz-adv-x="499" 
d="M478 648l-317 -544h326v-104h-469v76l327 560h-333v104h466v-92z" />
    <glyph glyph-name="bracketleft" unicode="[" horiz-adv-x="451" 
d="M380 -113v-88h-265v941h265v-87h-164v-766h164z" />
    <glyph glyph-name="backslash" unicode="\" horiz-adv-x="559" 
d="M373 -100l-303 840h116l304 -840h-117z" />
    <glyph glyph-name="bracketright" unicode="]" horiz-adv-x="451" 
d="M71 -201v88h164v766h-164v87h266v-941h-266z" />
    <glyph glyph-name="asciicircum" unicode="^" horiz-adv-x="600" 
d="M74 375l173 365h106l173 -365h-114l-113 272l-112 -272h-113z" />
    <glyph glyph-name="underscore" unicode="_" horiz-adv-x="500" 
d="M500 -125h-500v50h500v-50z" />
    <glyph glyph-name="grave" unicode="`" horiz-adv-x="555" 
d="M160 800l240 -133l-31 -64l-243 122z" />
    <glyph glyph-name="a" unicode="a" horiz-adv-x="691" 
d="M622 544l0.00195312 -544h-104v95c-18.667 -36 -46 -63.5 -82 -82.5s-76 -28.5 -120 -28.5c-84.667 0 -152.334 28.167 -203.001 84.5s-76 124.166 -76 203.499c0 82.667 26.667 151.334 80 206.001s119.666 82 198.999 82c50 0 92.5 -11.167 127.5 -33.5
s59.833 -48.5 74.5 -78.5v96h104zM141.002 271l-0.000976562 -1.00098c0.666992 -47.333 17.334 -90.666 50.001 -129.999s79.334 -59 140.001 -59c40 0 74.667 9.83301 104 29.5s51 45.834 65 78.501c11.333 24 17.666 51 18.999 81c1.33301 29.333 -4 56.333 -16 81
c-14 33.333 -36 60.333 -66 81s-66 31 -108 31c-55.333 0 -100.5 -18.833 -135.5 -56.5s-52.5 -82.834 -52.5 -135.501z" />
    <glyph glyph-name="b" unicode="b" horiz-adv-x="684" 
d="M68 0l-0.000976562 740h104v-197v-86c24 34 54 59.5 90 76.5s72.667 25.833 110 26.5c74.667 0 139.334 -26 194.001 -78s82 -121.333 82 -208c0 -86 -26.833 -155.833 -80.5 -209.5s-120.167 -80.5 -199.5 -80.5c-45.333 0 -85.5 10 -120.5 30s-61.5 46.667 -79.5 80
v-94h-100zM543.999 272v0.999023c0 53.333 -18 98.333 -54 135s-80.667 55 -134 55c-54.667 0 -99.667 -18.5 -135 -55.5s-53 -81.833 -53 -134.5c0 -53.333 17.333 -98.666 52 -135.999s79 -56 133 -56c58.667 0 105 19.167 139 57.5s51.333 82.833 52 133.5z" />
    <glyph glyph-name="c" unicode="c" horiz-adv-x="637" 
d="M497 191l106.999 -0.000976562c-16.667 -60.667 -50.167 -110.334 -100.5 -149.001s-108.833 -58 -175.5 -58c-86 0 -156 28.333 -210 85s-81 124.334 -81 203.001c0 80.667 27.333 148.834 82 204.501s122.667 83.5 204 83.5c66 0 125.167 -19 177.5 -57
s86.833 -89.333 103.5 -154h-107c-14 36 -36.333 64 -67 84s-65 30 -103 30c-50.667 0.666992 -95 -17 -133 -53c-35.333 -35.333 -53 -81.333 -53 -138c0 -55.333 17.833 -101 53.5 -137s79.834 -54 132.501 -54c42.667 0.666992 78.667 11.667 108 33s50 47 62 77z" />
    <glyph glyph-name="d" unicode="d" horiz-adv-x="689" 
d="M619 740v-740h-100v95c-39.333 -74 -107 -111 -203 -111c-83.333 0 -150.666 28 -201.999 84s-77 124.333 -77 205c0 83.333 26.5 152 79.5 206s118.833 81 197.5 81c50 0 92.667 -11 128 -33s59.666 -46 72.999 -72v96v189h104zM141 273l-0.000976562 -1
c0.666992 -52.667 18.334 -97.667 53.001 -135s80.667 -56 138 -56c54 0 99.333 19 136 57c37.333 37.333 55 83 53 137c0 54 -18.333 98.667 -55 134c-36 36 -80.667 54 -134 54c-56 0 -101.833 -18.5 -137.5 -55.5s-53.5 -81.833 -53.5 -134.5z" />
    <glyph glyph-name="e" unicode="e" horiz-adv-x="634" 
d="M600 239l-465.001 -0.000976562c2.66699 -51.333 22.5 -91.833 59.5 -121.5s78.167 -44.5 123.5 -44.5c72.667 0 125 30.667 157 92h108c-25.333 -58.667 -62 -103.667 -110 -135c-45.333 -30.667 -97 -46 -155 -46c-85.333 0 -154.666 28.833 -207.999 86.5
s-80 124.5 -80 200.5c0 79.333 27.5 147.333 82.5 204s123.167 85 204.5 85c79.333 0 146.333 -26.667 201 -80c64 -65.333 91.333 -145.666 82 -240.999zM136.999 319.999l360 0.000976562c-2.66699 38.667 -21.167 73.667 -55.5 105s-75.833 46.666 -124.5 45.999
c-50.667 0 -92.667 -15.333 -126 -46s-51.333 -65.667 -54 -105z" />
    <glyph glyph-name="f" unicode="f" horiz-adv-x="291" 
d="M79 0l0.000976562 462.999h-74v81h74v37c0 31.333 4.83301 58.166 14.5 80.499s21 39.333 34 51s30 20.834 51 27.501s38.667 10.667 53 12s31.5 2 51.5 2v-82c-10.667 0 -18.834 -0.333008 -24.501 -1s-14.167 -2.66699 -25.5 -6s-20 -8.16602 -26 -14.499
s-11.5 -15.833 -16.5 -28.5s-7.5 -28 -7.5 -46v-32h100v-81h-100v-463h-104z" />
    <glyph glyph-name="g" unicode="g" horiz-adv-x="685" 
d="M618 544v-481.002c0 -85.333 -21.333 -152.666 -64 -201.999c-26 -30 -59.167 -54 -99.5 -72s-83.5 -27 -129.5 -27c-72 0 -131.333 17.667 -178 53s-77.334 78 -92.001 128h120c12 -24.667 32 -45.667 60 -63c28.667 -19.333 60 -29 94 -29c48.667 0 91.667 17 129 51
s56 80 56 138v56c-17.333 -32.667 -42.666 -59.5 -75.999 -80.5s-73.333 -31.5 -120 -31.5c-81.333 0 -148.5 27.333 -201.5 82s-79.5 122.667 -79.5 204c0 84 26.833 153.333 80.5 208s120.5 82 200.5 82c44 0 83.833 -10.167 119.5 -30.5s61.167 -46.166 76.5 -77.499v92
h104zM141 272.998v-1c0 -52.667 17.333 -97.667 52 -135s80 -56 136 -56c54 0 98.667 18.333 134 55c34 35.333 51.667 79.666 53 132.999c0 50 -14.667 93 -44 129c-34 42.667 -81.667 64 -143 64c-52.667 0 -97.167 -17.667 -133.5 -53s-54.5 -80.666 -54.5 -135.999z" />
    <glyph glyph-name="h" unicode="h" horiz-adv-x="636" 
d="M68 0v739.998h104v-187v-85c15.333 30.667 39.166 53.834 71.499 69.501s67.5 23.167 105.5 22.5c79.333 0 137.333 -25.333 174 -76c31.333 -43.333 47 -105.666 47 -186.999v-297h-105v292c0 53.333 -10.333 94 -31 122c-25.333 32 -63.333 48 -114 48
c-51.333 0 -89.666 -16.667 -114.999 -50c-22 -28 -33 -63 -33 -105v-307h-104z" />
    <glyph glyph-name="i" unicode="i" horiz-adv-x="240" 
d="M68 630v110h104v-110h-104zM68 0v544h104v-544h-104z" />
    <glyph glyph-name="j" unicode="j" horiz-adv-x="275" 
d="M91 629v111h104v-111h-104zM195 544l0.000976562 -535c0 -31.333 -1.66699 -57.5 -5 -78.5s-10.333 -42.5 -21 -64.5s-27.834 -39 -51.501 -51s-54.167 -19.333 -91.5 -22c-6 -0.666992 -15.667 -1 -29 -1v83c8 0 13.667 0.333008 17 1c17.333 2 31.5 6.5 42.5 13.5
s18.833 17 23.5 30s7.66699 25.667 9 38s2 28.5 2 48.5v538h104z" />
    <glyph glyph-name="k" unicode="k" horiz-adv-x="535" 
d="M71 0v740h105v-411l213 215h126l-242 -239l249 -305h-121l-225 280v-280h-105z" />
    <glyph glyph-name="l" unicode="l" horiz-adv-x="240" 
d="M68 0v740h104v-740h-104z" />
    <glyph glyph-name="m" unicode="m" horiz-adv-x="960" 
d="M68 0l0.000976562 543.999h98v-77c12.667 24.667 34 46.334 64 65.001s63.667 28 101 28c59.333 0 106 -19.333 140 -58c5.33301 -5.33301 17 -23 35 -53c12.667 22.667 25.667 40.667 39 54c38 38 86 57 144 57c61.333 0 110 -18.333 146 -55
c23.333 -24 39.166 -50.833 47.499 -80.5s12.5 -71.167 12.5 -124.5v-300h-104v296c0 54.667 -10 95 -30 121c-20.667 30 -53 45 -97 45c-48.667 0 -83.667 -17.333 -105 -52c-16.667 -26 -25 -62.667 -25 -110v-300h-105v300c1.33301 46 -6 82 -22 108
c-22 35.333 -56.333 53.333 -103 54s-81 -17 -103 -53c-19.333 -28 -29 -65 -29 -111v-298h-104z" />
    <glyph glyph-name="n" unicode="n" horiz-adv-x="636" 
d="M68 0l0.000976562 543.998h98v-84c14 30 36.667 54.333 68 73s70 27.667 116 27c41.333 -0.666992 77 -8 107 -22s52.833 -33.167 68.5 -57.5s27 -49.666 34 -75.999s10.5 -54.833 10.5 -85.5v-319h-105v295c0 52.667 -11.333 93.834 -34 123.501
s-59.334 44.167 -110.001 43.5c-49.333 -0.666992 -86.5 -15.167 -111.5 -43.5s-37.5 -66.833 -37.5 -115.5v-303h-104z" />
    <glyph glyph-name="o" unicode="o" horiz-adv-x="655" 
d="M37 272v0.999023c0 76.667 26.5 143.667 79.5 201s123.167 86 210.5 86s157.5 -28.667 210.5 -86s79.5 -124.666 79.5 -201.999s-26.5 -144.5 -79.5 -201.5s-123.167 -85.5 -210.5 -85.5s-157.5 28.5 -210.5 85.5s-79.5 124.167 -79.5 201.5zM141 271.999v-1
c0 -54 18 -99 54 -135s80 -54 132 -54s96 18.167 132 54.5s54 81.5 54 135.5s-18 99.167 -54 135.5s-80 54.5 -132 54.5s-96 -18.167 -132 -54.5s-54 -81.5 -54 -135.5z" />
    <glyph glyph-name="p" unicode="p" horiz-adv-x="688" 
d="M68 -198v742.001h99v-95c46.667 74 116 111 208 111c59.333 0 110.5 -15.167 153.5 -45.5s74 -67 93 -110s28.5 -88.167 28.5 -135.5c0 -78.667 -25.667 -145.834 -77 -201.501s-117 -83.5 -197 -83.5c-50.667 0 -93.667 10.833 -129 32.5s-60.333 46.167 -75 73.5v-90
v-198h-104zM545 272.001l-0.000976562 1c0 49.333 -16.833 93.333 -50.5 132s-80.167 58 -139.5 58c-54 0 -99 -18.667 -135 -56c-35.333 -36.667 -53 -82 -53 -136s18 -99 54 -135c36.667 -36.667 81.667 -55 135 -55c54.667 0 99.834 18.5 135.501 55.5
s53.5 82.167 53.5 135.5z" />
    <glyph glyph-name="q" unicode="q" horiz-adv-x="687" 
d="M619 544l-0.000976562 -741.999h-104v198v92c-14.667 -28 -39.5 -53 -74.5 -75s-78.5 -33 -130.5 -33c-80 0 -145.5 27.5 -196.5 82.5s-76.5 121.5 -76.5 199.5c0 85.333 26.333 155.666 79 210.999s119.334 83 200.001 83c50 0 92 -10.667 126 -32s59.667 -47 77 -77v93
h100zM140.999 270.001v-1c0 -50.667 17.833 -94.667 53.5 -132s81.167 -56 136.5 -56c52.667 0 97.334 18.333 134.001 55s55 81.667 55 135c2 52 -15.667 97.333 -53 136c-37.333 37.333 -82.666 56 -135.999 56c-58.667 0 -104.834 -19.333 -138.501 -58
s-50.834 -83.667 -51.501 -135z" />
    <glyph glyph-name="r" unicode="r" horiz-adv-x="336" 
d="M68 0v544h98v-80c30.667 62.667 84.667 94.667 162 96v-104h-7c-99.333 0 -149 -54 -149 -162v-294h-104z" />
    <glyph glyph-name="s" unicode="s" horiz-adv-x="466" 
d="M411 402l-103.003 0.00195312c0 22 -6.83301 39.833 -20.5 53.5s-33.167 20.167 -58.5 19.5c-24.667 0 -44 -6.83301 -58 -20.5s-20.667 -30.167 -20 -49.5c0.666992 -20 9.33398 -36 26.001 -48s41 -22.333 73 -31c16.667 -4.66699 28.834 -8.16699 36.501 -10.5
s19 -6.16602 34 -11.499s26.333 -10.5 34 -15.5s16.834 -11.667 27.501 -20s18.667 -17.333 24 -27s10 -21.334 14 -35.001s6.33301 -28.5 7 -44.5c0.666992 -52 -17.666 -94.667 -54.999 -128s-83.666 -50 -138.999 -50c-30.667 0 -60.167 5.5 -88.5 16.5
s-53.333 30.167 -75 57.5s-33.167 60.333 -34.5 99h103c2 -30 12.667 -52.167 32 -66.5s40.666 -21.5 63.999 -21.5c25.333 0 46.5 7.83301 63.5 23.5s25.5 34.834 25.5 57.501c-0.666992 25.333 -10.667 44.666 -30 57.999s-55.666 28.666 -108.999 45.999
c-43.333 13.333 -76.833 30.666 -100.5 51.999s-35.834 51 -36.501 89c0 50 17.667 90 53 120s78.666 45 129.999 45c20 0 39.667 -2.66699 59 -8s38 -13.666 56 -24.999s33 -27.833 45 -49.5s19 -46.834 21 -75.501z" />
    <glyph glyph-name="t" unicode="t" horiz-adv-x="326" 
d="M107 0v463h-98v81h98v196h104v-196h105v-81h-105v-463h-104z" />
    <glyph glyph-name="u" unicode="u" horiz-adv-x="637" 
d="M569 544v-544.001h-98v84c-14 -30 -36.667 -54.333 -68 -73s-70 -27.667 -116 -27c-42 0 -78 7.16699 -108 21.5s-52.667 33.5 -68 57.5s-26.5 49.333 -33.5 76s-10.5 55.334 -10.5 86.001v319h104v-295c0 -112 48.333 -168 145 -168
c49.333 0.666992 86.5 15.167 111.5 43.5s37.5 66.833 37.5 115.5v304h104z" />
    <glyph glyph-name="v" unicode="v" horiz-adv-x="542" 
d="M531 544l-208 -544h-104l-208 544h109l151 -414l151 414h109z" />
    <glyph glyph-name="w" unicode="w" horiz-adv-x="809" 
d="M190 0l-182 544h109l128 -411l116 379h87l118 -379l126 411h108l-181 -544h-99l-117 381l-114 -381h-99z" />
    <glyph glyph-name="x" unicode="x" horiz-adv-x="530" 
d="M5 0l196 283l-183 261h126l121 -187l120 187h124l-182 -261l197 -283h-127l-132 202l-133 -202h-127z" />
    <glyph glyph-name="y" unicode="y" horiz-adv-x="532" 
d="M123 -198l90 214l-208 528h112l150 -398l152 398h112l-297 -742h-111z" />
    <glyph glyph-name="z" unicode="z" horiz-adv-x="427" 
d="M14 0v74l276 389h-268v81h383v-82l-267 -381h275v-81h-399z" />
    <glyph glyph-name="braceleft" unicode="{" horiz-adv-x="496" 
d="M421 746l-0.000976562 -80.999h-55c-24.667 0 -40.834 -6.83301 -48.501 -20.5s-11.5 -36.167 -11.5 -67.5v-198c0 -24.667 -6.66699 -48.167 -20 -70.5s-26.166 -38.5 -38.499 -48.5s-24.833 -18.667 -37.5 -26c24.667 -6.66699 46.834 -21.5 66.501 -44.5
s29.5 -52.5 29.5 -88.5v-199c0 -32.667 3.83301 -55.5 11.5 -68.5s23.834 -19.5 48.501 -19.5h55v-82h-101c-36.667 0 -66 11.167 -88 33.5s-33 55.5 -33 99.5v199c0 57.333 -30 96.333 -90 117v108c21.333 3.33301 41.666 15.666 60.999 36.999s29 50 29 86v203
c0 44 10.833 76.833 32.5 98.5s51.167 32.5 88.5 32.5h101z" />
    <glyph glyph-name="bar" unicode="|" horiz-adv-x="555" 
d="M221 750h114v-1000h-114v1000z" />
    <glyph glyph-name="braceright" unicode="}" horiz-adv-x="496" 
d="M75 665v80.999h101c37.333 0 66.833 -10.833 88.5 -32.5s32.5 -54.5 32.5 -98.5v-203c0 -36 9.66699 -64.667 29 -86s39.666 -33.666 60.999 -36.999v-108c-60 -20.667 -90 -59.667 -90 -117v-199c0 -44 -11 -77.167 -33 -99.5s-51.333 -33.5 -88 -33.5h-101v82h55
c24.667 0 40.834 6.5 48.501 19.5s11.5 35.833 11.5 68.5v199c0 18 3.83301 35.333 11.5 52s17.167 30.5 28.5 41.5s21.5 19.667 30.5 26s17.5 11.5 25.5 15.5c-26.667 9.33301 -49.334 26 -68.001 50s-28 55 -28 93v198c0 32 -3.66699 54.667 -11 68s-23.666 20 -48.999 20
h-55z" />
    <glyph glyph-name="asciitilde" unicode="~" horiz-adv-x="600" 
d="M500 338l29 -96c-36 -53.333 -74.333 -80 -115 -80c-27.333 0 -63 11.333 -107 34c-46.667 24 -84.667 36 -114 36c-36.667 0.666992 -68 -21.333 -94 -66l-28 94c30 56.667 71.667 84 125 82c25.333 0 63.333 -11.333 114 -34c53.333 -24 88 -36 104 -36
c12 0 23.667 3.66699 35 11s20.333 14.833 27 22.5s14.667 18.5 24 32.5z" />
    <glyph glyph-name="uni00A0" unicode="&#xa0;" horiz-adv-x="295" 
 />
    <glyph glyph-name="exclamdown" unicode="&#xa1;" horiz-adv-x="300" 
d="M96 414v130h108v-130h-108zM96 -196v531h108v-531h-108z" />
    <glyph glyph-name="cent" unicode="&#xa2;" 
d="M346 35l-89.001 0.00488281v106c-34 7.33301 -64 19.666 -90 36.999s-46.167 37.166 -60.5 59.499s-24.833 44.666 -31.5 66.999s-10 44.5 -10 66.5c0 51.333 16 99.833 48 145.5s80 75.167 144 88.5v100h86v-99c45.333 -10 84 -29.833 116 -59.5s54 -64.5 66 -104.5
h-110c-23.333 42.667 -60.666 64 -111.999 64c-38.667 0 -70.667 -12.833 -96 -38.5s-38 -56.834 -38 -93.501s12.167 -68.334 36.5 -95.001s56.833 -40 97.5 -40c48 0 84.667 19.667 110 59h113c-15.333 -42 -39.5 -76.833 -72.5 -104.5s-68.833 -45.167 -107.5 -52.5v-106
z" />
    <glyph glyph-name="sterling" unicode="&#xa3;" 
d="M409 406l-0.00292969 -85h-152c43.333 -38.667 65 -80.334 65 -125.001c0 -32 -14 -66 -42 -102h64c42.667 0 74.667 8.33301 96 25c27.333 25.333 41 55 41 89c0 10 -2.33301 24.333 -7 43h103c5.33301 -20 8 -39.333 8 -58c0 -48.667 -17.333 -92 -52 -130
c-21.333 -21.333 -45.166 -37.166 -71.499 -47.499s-61.166 -15.5 -104.499 -15.5h-317v94h94c48 10.667 72 42 72 94c0 44 -25 88.333 -75 133h-121v85h65c-22 32 -33 67.667 -33 107c0 64.667 23.5 121 70.5 169s107.833 72 182.5 72c64 0 119.5 -19.5 166.5 -58.5
s74.5 -92.167 82.5 -159.5h-110c-8 32 -23.5 59 -46.5 81s-53.167 33 -90.5 33c-40 0 -72.667 -13.333 -98 -40s-38.666 -60 -39.999 -100c0.666992 -38 14.667 -72.667 42 -104h208z" />
    <glyph glyph-name="currency" unicode="&#xa4;" 
d="M517 68l-79 79.999c-44 -31.333 -91.667 -47 -143 -47s-99 15.667 -143 47l-80 -79l-54 53l82 82c-31.333 42 -47 87.667 -47 137c0 52.667 16 99.667 48 141l-84 82l55 55l83 -83c42 30.667 88.667 46 140 46s97.333 -15 138 -45l83 81l54 -54l-81 -81
c31.333 -43.333 47 -90.666 47 -141.999c0 -50 -15.333 -95.667 -46 -137l81 -81zM152 341.999v-1c0 -38.667 14.167 -72 42.5 -100s61.833 -42 100.5 -42s72 14 100 42s42 61.667 42 101s-13.833 73 -41.5 101s-61.167 42 -100.5 42c-38.667 0 -72.167 -14 -100.5 -42
s-42.5 -61.667 -42.5 -101z" />
    <glyph glyph-name="yen" unicode="&#xa5;" 
d="M558 472v-88h-186l-20 -39v-53h206v-88h-206v-204h-116v204h-204v88h204v52l-21 40h-182v88h137l-155 268h125l155 -288l158 288h123l-156 -268h138z" />
    <glyph glyph-name="brokenbar" unicode="&#xa6;" horiz-adv-x="555" 
d="M221 675h114v-350h-114v350zM221 175h114v-350h-114v350z" />
    <glyph glyph-name="section" unicode="&#xa7;" horiz-adv-x="627" 
d="M536 565l-103.006 0.00195312c-9.33301 62 -48.333 93 -117 93c-29.333 0 -54.333 -7.66699 -75 -23s-31 -37.666 -31 -66.999c0 -16.667 4.83301 -31.334 14.5 -44.001s18.834 -21.667 27.501 -27s20.667 -11.333 36 -18l167 -77c14.667 -6.66699 27 -13 37 -19
s22.667 -15.5 38 -28.5s27.166 -29.167 35.499 -48.5s12.5 -41 12.5 -65c0 -59.333 -30 -111.666 -90 -156.999c39.333 -36 59 -80.667 59 -134c0 -55.333 -20.333 -102.333 -61 -141s-96 -58 -166 -58c-22 0 -43.667 2.16699 -65 6.5s-43.166 12.166 -65.499 23.499
s-42 25.5 -59 42.5s-31.167 39 -42.5 66s-17.333 57.5 -18 91.5h103c2.66699 -46.667 17.334 -80.667 44.001 -102s60.334 -32 101.001 -32c40 0 70.833 9.66699 92.5 29s33.167 43.666 34.5 72.999c-0.666992 22 -9 40.667 -25 56s-39.667 30.333 -71 45l-181 84
c-12 5.33301 -21.333 9.83301 -28 13.5s-16.667 10.5 -30 20.5s-23.666 20.333 -30.999 31s-14.166 25 -20.499 43s-9.5 38 -9.5 60c0 63.333 32.667 115.666 98 156.999c-25.333 33.333 -38 70 -38 110c0 58.667 20.833 104.167 62.5 136.5s91.5 48.5 149.5 48.5
c64.667 0 116.334 -18 155.001 -54s58.667 -81 60 -135zM483.994 225.002l0.000976562 1.00098c-0.666992 22.667 -8.33398 40.834 -23.001 54.501s-35.334 26.5 -62.001 38.5l-191 89c-42 -20.667 -63 -51.334 -63 -92.001c0 -38.667 21.333 -68.334 64 -89.001l212 -97
c16 8 30.333 20.667 43 38s19.334 36.333 20.001 57z" />
    <glyph glyph-name="dieresis" unicode="&#xa8;" horiz-adv-x="555" 
d="M226 763v-135h-101v135h101zM429 763v-135h-101v135h101z" />
    <glyph glyph-name="copyright" unicode="&#xa9;" horiz-adv-x="800" 
d="M402 753h0.998047c106 0 195.667 -37.5 269 -112.5s110 -165.167 110 -270.5c0 -106.667 -37.167 -197.167 -111.5 -271.5s-164.166 -111.5 -269.499 -111.5c-106.667 0 -197.167 37 -271.5 111s-111.5 164.667 -111.5 272c0 105.333 36.833 195.5 110.5 270.5
s164.834 112.5 273.501 112.5zM400.998 699h-1c-92 0 -169 -32.167 -231 -96.5s-93 -141.833 -93 -232.5c0 -92 31.5 -169.833 94.5 -233.5s139.833 -95.5 230.5 -95.5c89.333 0 165.5 31.833 228.5 95.5s94.5 141.5 94.5 233.5c0 90.667 -31 168.167 -93 232.5
s-138.667 96.5 -230 96.5zM596.998 443l-69.998 0.00195312c-8 33.333 -23.333 57.166 -46 71.499s-47.667 21.5 -75 21.5c-44.667 0 -79.667 -15.667 -105 -47s-38 -70.666 -38 -117.999c0 -50.667 13.5 -90.5 40.5 -119.5s61.167 -43.5 102.5 -43.5
c8.66699 0 17.667 1 27 3s21.5 6.5 36.5 13.5s28.167 19.5 39.5 37.5s19 40.333 23 67h71c-4.66699 -56.667 -25.5 -101.334 -62.5 -134.001s-82.833 -49 -137.5 -49c-61.333 0 -112 20.167 -152 60.5s-60 95.166 -60 164.499c0 65.333 19.333 119.5 58 162.5
s91 64.5 157 64.5c53.333 0 97.666 -15.333 132.999 -46s54.666 -67 57.999 -109z" />
    <glyph glyph-name="ordfeminine" unicode="&#xaa;" horiz-adv-x="409" 
d="M362 744l0.000976562 -307h-67v54c-20.667 -42 -57.334 -63 -110.001 -63c-45.333 0 -83 16 -113 48s-45 70.333 -45 115c0 47.333 15.5 86.333 46.5 117s68.5 46 112.5 46c50 0 86.333 -21.333 109 -64v54h67zM94.001 589l-0.000976562 -1
c0 -23.333 9 -45.166 27 -65.499s42.667 -30.5 74 -30.5c42 0 72 18 90 54c6.66699 13.333 10 28.333 10 45c0 15.333 -2.66699 29.333 -8 42c-8 17.333 -20.167 31.166 -36.5 41.499s-35.166 15.5 -56.499 15.5c-28 0 -51.667 -9.66699 -71 -29s-29 -43.333 -29 -72z" />
    <glyph glyph-name="guillemotleft" unicode="&#xab;" horiz-adv-x="390" 
d="M34 280l105 188h80l-105 -188l105 -186h-80zM184 280l105 188h80l-105 -188l105 -186h-80z" />
    <glyph glyph-name="logicalnot" unicode="&#xac;" horiz-adv-x="600" 
d="M48 407h504v-285h-101v185h-403v100z" />
    <glyph glyph-name="uni00AD" unicode="&#xad;" horiz-adv-x="274" 
d="M0 335h274v-103h-274v103z" />
    <glyph glyph-name="registered" unicode="&#xae;" horiz-adv-x="800" 
d="M402 753h0.998047c106 0 195.667 -37.5 269 -112.5s110 -165.167 110 -270.5c0 -106.667 -37.167 -197.167 -111.5 -271.5s-164.166 -111.5 -269.499 -111.5c-106.667 0 -197.167 37 -271.5 111s-111.5 164.667 -111.5 272c0 104.667 36.833 194.667 110.5 270
s164.834 113 273.501 113zM400.998 699h-1.00098c-91.333 0 -168.166 -32.167 -230.499 -96.5s-93.5 -141.833 -93.5 -232.5c0 -91.333 31.5 -169 94.5 -233s139.833 -96 230.5 -96c89.333 0 165.5 31.833 228.5 95.5s94.5 141.5 94.5 233.5c0 90 -31 167.333 -93 232
s-138.667 97 -230 97zM235.997 588l181.999 -0.000976562c16.667 0 33 -1.66699 49 -5s32.5 -9 49.5 -17s30.667 -20.333 41 -37s15.5 -37 15.5 -61c0 -49.333 -25.667 -84.333 -77 -105c22.667 -7.33301 39.334 -18.666 50.001 -33.999s17 -37.333 19 -66
c2.66699 -43.333 4.5 -70 5.5 -80s3.5 -19.667 7.5 -29h-69c-4.66699 7.33301 -9 41 -13 101c-1.33301 13.333 -3 23.5 -5 30.5s-6.16699 15 -12.5 24s-16.5 15.5 -30.5 19.5s-32 6 -54 6h-87v-181h-71v434zM406.996 535.999l-100 -0.000976562v-151h91
c10.667 0.666992 18 1 22 1s12.5 1.5 25.5 4.5s22.667 7 29 12s12.5 12.833 18.5 23.5s9 23.334 9 38.001c0 48 -31.667 72 -95 72z" />
    <glyph glyph-name="macron" unicode="&#xaf;" horiz-adv-x="555" 
d="M456 735v-83h-358v83h358z" />
    <glyph glyph-name="degree" unicode="&#xb0;" horiz-adv-x="400" 
d="M343 568v-1c0 -39.333 -13.833 -72.833 -41.5 -100.5s-61.5 -41.5 -101.5 -41.5s-73.833 13.833 -101.5 41.5s-41.5 61.5 -41.5 101.5s13.833 73.833 41.5 101.5s61.5 41.5 101.5 41.5s73.833 -13.833 101.5 -41.5s41.5 -61.5 41.5 -101.5zM116 568v-1
c0 -23.333 8.16699 -43.333 24.5 -60s36.166 -25 59.499 -25s43.166 8.5 59.499 25.5s24.5 37.167 24.5 60.5s-8.16699 43.333 -24.5 60s-36.166 25 -59.499 25s-43.166 -8.33301 -59.499 -25s-24.5 -36.667 -24.5 -60z" />
    <glyph glyph-name="plusminus" unicode="&#xb1;" horiz-adv-x="600" 
d="M250 370v164h100v-164h202v-101h-202v-160h-100v160h-202v101h202zM48 -45v101h504v-101h-504z" />
    <glyph glyph-name="twosuperior" unicode="&#xb2;" horiz-adv-x="382" 
d="M345 366l0.000976562 -70.001h-310v64l158 148c40 37.333 60 70.333 60 99c0 20.667 -5.33301 37.667 -16 51s-27.334 20 -50.001 20c-23.333 0 -41 -8.66699 -53 -26s-18 -39.333 -18 -66h-80c0 42 9.66699 76 29 102c28.667 40.667 70.667 61 126 61
c48 0 85.333 -11.667 112 -35s40 -56.333 40 -99c0 -25.333 -5 -47.666 -15 -66.999s-26.333 -40 -49 -62l-124 -120h190z" />
    <glyph glyph-name="threesuperior" unicode="&#xb3;" horiz-adv-x="382" 
d="M27 432l84.001 -0.00292969c1.33301 -23.333 9.16602 -41.5 23.499 -54.5s32.166 -19.5 53.499 -19.5c23.333 0 41.833 6.83301 55.5 20.5s20.5 31.5 20.5 53.5c0 18 -6.66699 34.333 -20 49s-33.333 22 -60 22h-43v61h26c22 0 39.833 6 53.5 18s20.5 25.667 20.5 41
c0 14.667 -4.66699 27.334 -14 38.001s-22.333 16.334 -39 17.001c-18.667 0 -32.5 -5.33301 -41.5 -16s-14.167 -24 -15.5 -40h-82c1.33301 44.667 17 77 47 97s61.333 30 94 30c38 0 69.5 -11.167 94.5 -33.5s37.5 -49.5 37.5 -81.5c0 -40 -19 -70.667 -57 -92
c25.333 -9.33301 45.666 -24.333 60.999 -45s23 -43.667 23 -69c0 -40 -15.667 -73.5 -47 -100.5s-69.666 -40.5 -114.999 -40.5c-26.667 0 -52.167 5.33301 -76.5 16s-43.166 25.334 -56.499 44.001c-16.667 22.667 -25.667 51 -27 85z" />
    <glyph glyph-name="acute" unicode="&#xb4;" horiz-adv-x="555" 
d="M155 671l239 134l35 -76l-242 -122z" />
    <glyph glyph-name="mu" unicode="&#xb5;" horiz-adv-x="601" 
d="M64 -186l0.000976562 730h104v-286c0 -58 9.33301 -100.333 28 -127c24 -33.333 58.333 -50 103 -50s78.667 18 102 54c23.333 34 35 82.333 35 145v264h104v-544h-100v91c-28.667 -68 -75.334 -102 -140.001 -102c-60.667 0 -104.667 23.333 -132 70v-68v-177h-104z" />
    <glyph glyph-name="paragraph" unicode="&#xb6;" horiz-adv-x="638" 
d="M220 -113v463c-64.667 0 -117.167 16.333 -157.5 49s-60.5 80.334 -60.5 143.001c0 39.333 7.83301 72.833 23.5 100.5s36.667 48.167 63 61.5s52.333 22.666 78 27.999s52.5 8 80.5 8h308v-78h-55v-775h-84v774h-112v-774h-84z" />
    <glyph glyph-name="periodcentered" unicode="&#xb7;" horiz-adv-x="297" 
d="M204 319v-130h-109v130h109z" />
    <glyph glyph-name="cedilla" unicode="&#xb8;" horiz-adv-x="555" 
d="M302 0l-27.002 -54.999c4 2 9.66699 3 17 3c22 0 40.667 -7.5 56 -22.5s23 -34.833 23 -59.5c0 -24 -8.16699 -45.167 -24.5 -63.5s-39.5 -27.5 -69.5 -27.5c-9.33301 0 -19.166 1 -29.499 3s-22.666 9.5 -36.999 22.5s-23.166 30.833 -26.499 53.5h54
c5.33301 -20.667 18.333 -31 39 -31c11.333 0 20.833 3.83301 28.5 11.5s11.5 18.167 11.5 31.5c0 11.333 -3.83301 20.666 -11.5 27.999s-16.834 11 -27.501 11c-13.333 0 -24.333 -6.33301 -33 -19l-46 21l44 93h59z" />
    <glyph glyph-name="onesuperior" unicode="&#xb9;" horiz-adv-x="382" 
d="M237 740v-444h-80v374h-86v70h166z" />
    <glyph glyph-name="ordmasculine" unicode="&#xba;" horiz-adv-x="409" 
d="M40 589l-0.000976562 1c0 44 15 82.167 45 114.5s69.667 48.833 119 49.5c50 0 90 -16.333 120 -49s45 -70.667 45 -114c0 -44.667 -15.667 -83 -47 -115s-70.666 -48 -117.999 -48c-48 0 -87.333 16.167 -118 48.5s-46 69.833 -46 112.5zM106.999 590
l0.000976562 -0.999023c0 -26.667 9.5 -49.5 28.5 -68.5s41.833 -28.5 68.5 -28.5c26 0 48.667 9.5 68 28.5s29 42.5 29 70.5c0 27.333 -9.33301 50.666 -28 69.999s-41.334 29 -68.001 29s-49.667 -9.33301 -69 -28s-29 -42.667 -29 -72z" />
    <glyph glyph-name="guillemotright" unicode="&#xbb;" horiz-adv-x="390" 
d="M251 467l105 -187l-105 -186h-80l106 186l-106 187h80zM101 467l105 -187l-105 -186h-80l105 186l-105 187h80z" />
    <glyph glyph-name="onequarter" unicode="&#xbc;" horiz-adv-x="810" 
d="M575 740l-319 -740h-88l318 740h89zM637 341l-130 -197h130v197zM212 740v-444h-80v374h-86v70h166zM717 444v-300h47v-63h-47v-81h-81v81h-217v56l218 307h80z" />
    <glyph glyph-name="onehalf" unicode="&#xbd;" horiz-adv-x="844" 
d="M212 740v-444h-80v374h-86v70h166zM575 740l-319 -740h-88l318 740h89zM798 70l0.000976562 -70.002h-310v64l158 148c40 37.333 60 70.333 60 99c0 20.667 -5.33301 37.667 -16 51s-27.334 20 -50.001 20c-23.333 0 -41 -8.66699 -53 -26s-18 -39.333 -18 -66h-80
c0 40.667 8.66699 73.334 26 98.001c28.667 43.333 71.667 65 129 65c48 0 85.333 -11.667 112 -35s40 -56.333 40 -99c0 -25.333 -5 -47.666 -15 -66.999s-26.333 -40 -49 -62l-124 -120h190z" />
    <glyph glyph-name="threequarters" unicode="&#xbe;" horiz-adv-x="913" 
d="M745 344l-133 -200h133v200zM686 740l-319 -740h-88l318 740h89zM825 444v-300h47v-63h-47v-81h-81v81h-217v56l218 307h80zM41 432l83.001 0.000976562c1.33301 -23.333 9.16602 -41.5 23.499 -54.5s32.5 -19.5 54.5 -19.5c23.333 0 41.833 6.83301 55.5 20.5
s20.5 31.5 20.5 53.5c0 18 -6.83301 34.333 -20.5 49s-33.834 22 -60.501 22h-42v61h25c22 0 39.833 6 53.5 18s20.5 25.667 20.5 41c0 14.667 -4.5 27.334 -13.5 38.001s-21.833 16.334 -38.5 17.001c-18.667 0 -32.667 -5.33301 -42 -16s-14.333 -24 -15 -40h-82
c0.666992 31.333 9.66699 57.166 27 77.499s35.833 33.666 55.5 39.999s39.167 9.5 58.5 9.5c37.333 0 68.5 -11.167 93.5 -33.5s37.5 -49.5 37.5 -81.5c0 -40.667 -19 -71.334 -57 -92.001c25.333 -9.33301 45.666 -24.333 60.999 -45s23 -43.667 23 -69
c0 -40 -15.5 -73.5 -46.5 -100.5s-69.167 -40.5 -114.5 -40.5c-27.333 0 -53.166 5.33301 -77.499 16s-43.5 26 -57.5 46c-15.333 22 -23.666 49.667 -24.999 83z" />
    <glyph glyph-name="questiondown" unicode="&#xbf;" horiz-adv-x="567" 
d="M246 414v130h109v-130h-109zM245 339l110.002 0.00292969c-1.33301 -35.333 -9 -67.5 -23 -96.5s-39 -60.833 -75 -95.5c-20.667 -20.667 -35.834 -36.5 -45.501 -47.5s-18.5 -24.333 -26.5 -40s-12 -31.5 -12 -47.5c0 -32.667 10.333 -59.834 31 -81.501
s48 -32.5 82 -32.5c31.333 0 58 9.66699 80 29s35.333 45.666 40 78.999c1.33301 10.667 2 19 2 25h114v-22c-4 -68 -29.667 -121.5 -77 -160.5s-102 -58.5 -164 -58.5c-66 0 -120.333 21 -163 63s-64 91.333 -64 148c0 26.667 6.5 53 19.5 79s26 46 39 60
s31.833 32.333 56.5 55c31.333 30 51.666 55.667 60.999 77s14.333 43.666 15 66.999z" />
    <glyph glyph-name="Agrave" unicode="&#xc0;" horiz-adv-x="726" 
d="M204 175l-68 -175h-128l304 740h107l299 -740h-128l-70 175h-316zM488 270l-127 333l-125 -333h252zM244 965l240 -133l-32 -64l-243 122z" />
    <glyph glyph-name="Aacute" unicode="&#xc1;" horiz-adv-x="726" 
d="M204 175l-68 -175h-128l304 740h107l299 -740h-128l-70 175h-316zM488 270l-127 333l-125 -333h252zM243 837l239 133l35 -76l-242 -122z" />
    <glyph glyph-name="Acircumflex" unicode="&#xc2;" horiz-adv-x="726" 
d="M204 175l-68 -175h-128l304 740h107l299 -740h-128l-70 175h-316zM488 270l-127 333l-125 -333h252zM401 935l169 -144h-108l-99 74l-98 -74h-109l172 144h73z" />
    <glyph glyph-name="Atilde" unicode="&#xc3;" horiz-adv-x="726" 
d="M204 175l-68 -175h-128l304 740h107l299 -740h-128l-70 175h-316zM488 270l-127 333l-125 -333h252zM518 920l39 -69c-31.333 -26 -66.333 -39 -105 -39c-12.667 0 -42 5.33301 -88 16c-32 10 -58.333 15 -79 15c-28 0 -53.333 -9 -76 -27l-39 71
c29.333 24.667 63.666 37 102.999 37c20 0 49.333 -5 88 -15c28.667 -10 55.334 -15 80.001 -15c32 0 57.667 8.66699 77 26z" />
    <glyph glyph-name="Adieresis" unicode="&#xc4;" horiz-adv-x="726" 
d="M204 175l-68 -175h-128l304 740h107l299 -740h-128l-70 175h-316zM488 270l-127 333l-125 -333h252zM312 928v-135h-101v135h101zM515 928v-135h-101v135h101z" />
    <glyph glyph-name="Aring" unicode="&#xc5;" horiz-adv-x="726" 
d="M204 175l-68 -175h-128l304 740h107l299 -740h-128l-70 175h-316zM488 270l-127 333l-125 -333h252zM363 983h1.00098c30 0 55.833 -10.667 77.5 -32s32.5 -47.333 32.5 -78c0 -30 -10.833 -55.833 -32.5 -77.5s-47.834 -32.5 -78.501 -32.5s-56.667 10.833 -78 32.5
s-32 47.5 -32 77.5c0 30.667 10.667 56.667 32 78s47.333 32 78 32zM363.001 927h-1c-14 0 -26.167 -5.33301 -36.5 -16s-15.5 -23 -15.5 -37c0 -14.667 5.16699 -27 15.5 -37s22.833 -15 37.5 -15s27.167 5 37.5 15s15.5 22.333 15.5 37s-5.16699 27.167 -15.5 37.5
s-22.833 15.5 -37.5 15.5z" />
    <glyph glyph-name="AE" unicode="&#xc6;" horiz-adv-x="961" 
d="M-9 0l513 740h396v-104h-267v-210h263v-103h-263v-219h267v-104h-382v187h-259l-127 -187h-141zM311 279h207v305z" />
    <glyph glyph-name="Ccedilla" unicode="&#xc7;" horiz-adv-x="811" 
d="M433 -13l-21 -42c5.33301 2 11.333 3 18 3c21.333 0 40 -7.5 56 -22.5s24 -34.833 24 -59.5c0 -24 -8.33301 -45.167 -25 -63.5s-40 -27.5 -70 -27.5c-9.33301 0 -19.166 1 -29.499 3s-22.666 9.5 -36.999 22.5s-23.166 30.833 -26.499 53.5h54
c6.66699 -20.667 19.667 -31 39 -31c12 0 21.667 3.83301 29 11.5s11.333 18.167 12 31.5c-0.666992 12 -4.83398 21.5 -12.501 28.5s-16.834 10.5 -27.501 10.5c-13.333 0 -24.333 -6.33301 -33 -19l-46 21l40 83c-98 11.333 -178.833 53.166 -242.5 125.499
s-95.5 157.5 -95.5 255.5c0 68 16 131 48 189s77.833 104.833 137.5 140.5s126.5 53.5 200.5 53.5c47.333 0 91.833 -7.83301 133.5 -23.5s76.667 -35.834 105 -60.501s52.166 -50.5 71.499 -77.5s33.666 -54.167 42.999 -81.5h-125
c-16.667 32.667 -44.667 63.834 -84 93.501s-87.666 44.834 -144.999 45.501c-76.667 0 -140.334 -27.333 -191.001 -82s-76 -120.334 -76 -197.001c0 -78 25.5 -144.333 76.5 -199s114.833 -82 191.5 -82c33.333 0 64.166 5.33301 92.499 16s51.833 24.834 70.5 42.501
s32.5 32 41.5 43s16.833 22.167 23.5 33.5h124c-23.333 -67.333 -66.166 -123.333 -128.499 -168s-134.166 -68 -215.499 -70z" />
    <glyph glyph-name="Egrave" unicode="&#xc8;" horiz-adv-x="537" 
d="M71 0v740h414v-104h-296v-210h292v-103h-292v-219h296v-104h-414zM151 978l240 -132l-31 -64l-243 121z" />
    <glyph glyph-name="Eacute" unicode="&#xc9;" horiz-adv-x="537" 
d="M71 0v740h414v-104h-296v-210h292v-103h-292v-219h296v-104h-414zM146 850l239 133l35 -75l-242 -122z" />
    <glyph glyph-name="Ecircumflex" unicode="&#xca;" horiz-adv-x="537" 
d="M71 0v740h414v-104h-296v-210h292v-103h-292v-219h296v-104h-414zM306 948l170 -144h-109l-98 74l-99 -74h-109l173 144h72z" />
    <glyph glyph-name="Edieresis" unicode="&#xcb;" horiz-adv-x="537" 
d="M71 0v740h414v-104h-296v-210h292v-103h-292v-219h296v-104h-414zM217 942v-136h-101v136h101zM420 942v-136h-101v136h101z" />
    <glyph glyph-name="Igrave" unicode="&#xcc;" horiz-adv-x="261" 
d="M71 0v740h118v-740h-118zM-9 976l239 -133l-31 -64l-243 122z" />
    <glyph glyph-name="Iacute" unicode="&#xcd;" horiz-adv-x="261" 
d="M71 0v740h118v-740h-118zM31 848l239 133l35 -76l-242 -122z" />
    <glyph glyph-name="Icircumflex" unicode="&#xce;" horiz-adv-x="261" 
d="M71 0v740h118v-740h-118zM168 944l170 -144h-109l-98 74l-99 -74h-109l173 144h72z" />
    <glyph glyph-name="Idieresis" unicode="&#xcf;" horiz-adv-x="261" 
d="M71 0v740h118v-740h-118zM79 939v-135h-101v135h101zM282 939v-135h-101v135h101z" />
    <glyph glyph-name="Eth" unicode="&#xd0;" horiz-adv-x="724" 
d="M71 428l0.000976562 312h232c136.667 0 237 -40 301 -120c54 -64.667 81 -147.667 81 -249c0 -111.333 -31.833 -201 -95.5 -269s-153.834 -102 -270.501 -102h-248v324h-71v104h71zM189.001 636l-0.000976562 -208h172v-104h-172v-220h125c84 0 147.333 24 190 72
s64 112.333 64 193c0 77.333 -20 140.333 -60 189c-45.333 52 -109.666 78 -192.999 78h-126z" />
    <glyph glyph-name="Ntilde" unicode="&#xd1;" horiz-adv-x="750" 
d="M182 740l384 -563l-2 563h114v-740h-108l-387 564l2 -564h-114v740h111zM529 918l39.999 -70c-31.333 -25.333 -66.333 -38 -105 -38c-20 0 -49.333 5.33301 -88 16c-32 10 -58.333 15 -79 15c-28.667 0 -54 -9.33301 -76 -28l-40 72c30.667 24.667 65.334 37 104.001 37
c23.333 0 52.333 -5.33301 87 -16c31.333 -9.33301 58.333 -14 81 -14c32 0 57.333 8.66699 76 26z" />
    <glyph glyph-name="Ograve" unicode="&#xd2;" horiz-adv-x="851" 
d="M38 365l-0.000976562 0.998047c0 114 37.833 207.167 113.5 279.5s166.834 108.5 273.501 108.5c110 0 202.167 -37.167 276.5 -111.5s111.5 -165.166 111.5 -272.499s-37.333 -198.166 -112 -272.499s-167 -111.5 -277 -111.5s-201.833 37.167 -275.5 111.5
s-110.5 163.5 -110.5 267.5zM154.999 370.998v-1c0 -78 25.833 -144.167 77.5 -198.5s116.5 -81.5 194.5 -81.5s142.167 27.833 192.5 83.5s75.5 120.834 75.5 195.501c0 75.333 -25.167 141 -75.5 197s-114.833 84 -193.5 84s-143.5 -27.333 -194.5 -82
s-76.5 -120.334 -76.5 -197.001zM307.999 977.998l240 -132l-31 -64l-243 121z" />
    <glyph glyph-name="Oacute" unicode="&#xd3;" horiz-adv-x="851" 
d="M38 365l-0.000976562 0.998047c0 114 37.833 207.167 113.5 279.5s166.834 108.5 273.501 108.5c110 0 202.167 -37.167 276.5 -111.5s111.5 -165.166 111.5 -272.499s-37.333 -198.166 -112 -272.499s-167 -111.5 -277 -111.5s-201.833 37.167 -275.5 111.5
s-110.5 163.5 -110.5 267.5zM154.999 370.998v-1c0 -78 25.833 -144.167 77.5 -198.5s116.5 -81.5 194.5 -81.5s142.167 27.833 192.5 83.5s75.5 120.834 75.5 195.501c0 75.333 -25.167 141 -75.5 197s-114.833 84 -193.5 84s-143.5 -27.333 -194.5 -82
s-76.5 -120.334 -76.5 -197.001zM302.999 849.998l239 133l35 -75l-242 -122z" />
    <glyph glyph-name="Ocircumflex" unicode="&#xd4;" horiz-adv-x="851" 
d="M38 365l-0.000976562 0.998047c0 114 37.833 207.167 113.5 279.5s166.834 108.5 273.501 108.5c110 0 202.167 -37.167 276.5 -111.5s111.5 -165.166 111.5 -272.499s-37.333 -198.166 -112 -272.499s-167 -111.5 -277 -111.5s-201.833 37.167 -275.5 111.5
s-110.5 163.5 -110.5 267.5zM154.999 370.998v-1c0 -78 25.833 -144.167 77.5 -198.5s116.5 -81.5 194.5 -81.5s142.167 27.833 192.5 83.5s75.5 120.834 75.5 195.501c0 75.333 -25.167 141 -75.5 197s-114.833 84 -193.5 84s-143.5 -27.333 -194.5 -82
s-76.5 -120.334 -76.5 -197.001zM462.999 945.998l170 -144h-109l-98 74l-99 -74h-109l173 144h72z" />
    <glyph glyph-name="Otilde" unicode="&#xd5;" horiz-adv-x="851" 
d="M38 365l-0.000976562 0.998047c0 114 37.833 207.167 113.5 279.5s166.834 108.5 273.501 108.5c110 0 202.167 -37.167 276.5 -111.5s111.5 -165.166 111.5 -272.499s-37.333 -198.166 -112 -272.499s-167 -111.5 -277 -111.5s-201.833 37.167 -275.5 111.5
s-110.5 163.5 -110.5 267.5zM154.999 370.998v-1c0 -78 25.833 -144.167 77.5 -198.5s116.5 -81.5 194.5 -81.5s142.167 27.833 192.5 83.5s75.5 120.834 75.5 195.501c0 75.333 -25.167 141 -75.5 197s-114.833 84 -193.5 84s-143.5 -27.333 -194.5 -82
s-76.5 -120.334 -76.5 -197.001zM579.999 917.998l38.999 -70c-30.667 -25.333 -65.667 -38 -105 -38c-18.667 0 -48 5.33301 -88 16c-32 10 -58.333 15 -79 15c-27.333 0 -52.666 -9.33301 -75.999 -28l-39 72c30.667 24.667 65 37 103 37c22.667 0 52 -5.33301 88 -16
c31.333 -9.33301 58 -14 80 -14c32 0 57.667 8.66699 77 26z" />
    <glyph glyph-name="Odieresis" unicode="&#xd6;" horiz-adv-x="851" 
d="M38 365l-0.000976562 0.998047c0 114 37.833 207.167 113.5 279.5s166.834 108.5 273.501 108.5c110 0 202.167 -37.167 276.5 -111.5s111.5 -165.166 111.5 -272.499s-37.333 -198.166 -112 -272.499s-167 -111.5 -277 -111.5s-201.833 37.167 -275.5 111.5
s-110.5 163.5 -110.5 267.5zM154.999 370.998v-1c0 -78 25.833 -144.167 77.5 -198.5s116.5 -81.5 194.5 -81.5s142.167 27.833 192.5 83.5s75.5 120.834 75.5 195.501c0 75.333 -25.167 141 -75.5 197s-114.833 84 -193.5 84s-143.5 -27.333 -194.5 -82
s-76.5 -120.334 -76.5 -197.001zM373.999 941.998v-136h-101v136h101zM576.999 941.998v-136h-101v136h101z" />
    <glyph glyph-name="multiply" unicode="&#xd7;" horiz-adv-x="600" 
d="M125 0l-72 72l175 175l-175 173l72 72l174 -174l176 174l72 -72l-175 -173l174 -175l-72 -72l-174 175z" />
    <glyph glyph-name="Oslash" unicode="&#xd8;" horiz-adv-x="851" 
d="M616 705l49.999 68.002h117l-91 -123c34 -30.667 62.667 -69.834 86 -117.501s35 -101.834 35 -162.501c0 -107.333 -37.333 -198.166 -112 -272.499s-167 -111.5 -277 -111.5c-69.333 0 -131.333 15.667 -186 47l-50 -66h-117l90 121c-35.333 30 -64.666 69 -87.999 117
s-35 103 -35 165c0 109.333 37.333 200.666 112 273.999s166.667 110 276 110c68 0 131.333 -16.333 190 -49zM230.999 181.002l319 436c-34 22 -75.333 33 -124 33c-79.333 0 -144.333 -27.5 -195 -82.5s-76 -120.167 -76 -195.5c0 -78 25.333 -141.667 76 -191z
M621.999 558.002l-319 -436.001c34.667 -21.333 75.667 -32 123 -32c78.667 0 143.167 27.833 193.5 83.5s75.5 120.834 75.5 195.501c0 72 -24.333 135 -73 189z" />
    <glyph glyph-name="Ugrave" unicode="&#xd9;" horiz-adv-x="656" 
d="M70 740l118.001 0.00195312v-462c0 -20 0.333008 -35.333 1 -46s3 -23.834 7 -39.501s10.333 -30.167 19 -43.5c24.667 -39.333 62.667 -59 114 -59c52 0 89.333 19 112 57c8.66699 13.333 15.167 27.833 19.5 43.5s6.83301 29 7.5 40s1 26.833 1 47.5v462h117v-462
c0.666992 -52.667 -4.83301 -97.334 -16.5 -134.001s-32.834 -67.667 -63.501 -93c-48 -43.333 -106.667 -65 -176 -65c-76 0 -135.667 21.333 -179 64c-33.333 30 -55.333 62.5 -66 97.5s-15.667 78.5 -15 130.5v462zM178.001 971.002l240 -132l-31 -64l-243 121z" />
    <glyph glyph-name="Uacute" unicode="&#xda;" horiz-adv-x="656" 
d="M70 740l118.001 0.00195312v-462c0 -20 0.333008 -35.333 1 -46s3 -23.834 7 -39.501s10.333 -30.167 19 -43.5c24.667 -39.333 62.667 -59 114 -59c52 0 89.333 19 112 57c8.66699 13.333 15.167 27.833 19.5 43.5s6.83301 29 7.5 40s1 26.833 1 47.5v462h117v-462
c0.666992 -52.667 -4.83301 -97.334 -16.5 -134.001s-32.834 -67.667 -63.501 -93c-48 -43.333 -106.667 -65 -176 -65c-76 0 -135.667 21.333 -179 64c-33.333 30 -55.333 62.5 -66 97.5s-15.667 78.5 -15 130.5v462zM225.001 843.002l239 133l35 -75l-242 -122z" />
    <glyph glyph-name="Ucircumflex" unicode="&#xdb;" horiz-adv-x="656" 
d="M70 740l118.001 0.00195312v-462c0 -20 0.333008 -35.333 1 -46s3 -23.834 7 -39.501s10.333 -30.167 19 -43.5c24.667 -39.333 62.667 -59 114 -59c52 0 89.333 19 112 57c8.66699 13.333 15.167 27.833 19.5 43.5s6.83301 29 7.5 40s1 26.833 1 47.5v462h117v-462
c0.666992 -52.667 -4.83301 -97.334 -16.5 -134.001s-32.834 -67.667 -63.501 -93c-48 -43.333 -106.667 -65 -176 -65c-76 0 -135.667 21.333 -179 64c-33.333 30 -55.333 62.5 -66 97.5s-15.667 78.5 -15 130.5v462zM366.001 941.002l170 -144h-109l-99 74l-98 -74h-109
l173 144h72z" />
    <glyph glyph-name="Udieresis" unicode="&#xdc;" horiz-adv-x="656" 
d="M70 740l118.001 0.00195312v-462c0 -20 0.333008 -35.333 1 -46s3 -23.834 7 -39.501s10.333 -30.167 19 -43.5c24.667 -39.333 62.667 -59 114 -59c52 0 89.333 19 112 57c8.66699 13.333 15.167 27.833 19.5 43.5s6.83301 29 7.5 40s1 26.833 1 47.5v462h117v-462
c0.666992 -52.667 -4.83301 -97.334 -16.5 -134.001s-32.834 -67.667 -63.501 -93c-48 -43.333 -106.667 -65 -176 -65c-76 0 -135.667 21.333 -179 64c-33.333 30 -55.333 62.5 -66 97.5s-15.667 78.5 -15 130.5v462zM277.001 935.002v-135h-101v135h101zM480.001 935.002
v-135h-101v135h101z" />
    <glyph glyph-name="Yacute" unicode="&#xdd;" horiz-adv-x="605" 
d="M244 0v263l-232 477h128l163 -366l163 366h128l-232 -477v-263h-118zM213 843l239 133l35 -75l-242 -122z" />
    <glyph glyph-name="Thorn" unicode="&#xde;" horiz-adv-x="580" 
d="M67 0l0.000976562 740h118v-123h93c56.667 0 99.667 -3.66699 129 -11s55.666 -20 78.999 -38c25.333 -20 45.333 -46.5 60 -79.5s22 -67.5 22 -103.5c0 -35.333 -7.16699 -69.833 -21.5 -103.5s-32.833 -59.5 -55.5 -77.5c-26 -20.667 -53.167 -35 -81.5 -43
s-68.5 -12 -120.5 -12h-104v-149h-118zM185.001 513v-260.999h102c50 0 88.333 8.33301 115 25c35.333 21.333 53 56.666 53 105.999c0 24 -5 45.333 -15 64s-23 32.667 -39 42c-26.667 16 -66 24 -118 24h-98z" />
    <glyph glyph-name="germandbls" unicode="&#xdf;" horiz-adv-x="633" 
d="M66 0l-0.000976562 448c0 59.333 3.5 104.5 10.5 135.5s21.167 58.833 42.5 83.5c22.667 28.667 51 50.667 85 66s68.667 23 104 23c64.667 0 117 -19.667 157 -59s60 -87.333 60 -144c0 -69.333 -29.667 -120 -89 -152c47.333 -8.66699 85.833 -31.167 115.5 -67.5
s44.5 -77.833 44.5 -124.5c0 -61.333 -22.667 -114.166 -68 -158.499s-102.333 -66.5 -171 -66.5c-47.333 0.666992 -87.166 12.167 -119.499 34.5s-54.833 54.166 -67.5 95.499v-114h-104zM169.999 474l0.00195312 -273h63c3.33301 -38 16.666 -67.333 39.999 -88
s52 -31.334 86 -32.001c38.667 0 70.5 12.167 95.5 36.5s37.5 53.833 37.5 88.5c0 39.333 -13.333 71 -40 95c-26.667 23.333 -70.667 35.333 -132 36h-48v80h31c32.667 0 60.5 11.333 83.5 34s34.5 51.334 34.5 86.001c0 38 -11.333 67.833 -34 89.5
s-52.334 32.5 -89.001 32.5c-48 0 -83 -19.667 -105 -59c-15.333 -28 -23 -70 -23 -126z" />
    <glyph glyph-name="agrave" unicode="&#xe0;" horiz-adv-x="691" 
d="M622 544l0.00195312 -544h-104v95c-18.667 -36 -46 -63.5 -82 -82.5s-76 -28.5 -120 -28.5c-84.667 0 -152.334 28.167 -203.001 84.5s-76 124.166 -76 203.499c0 82.667 26.667 151.334 80 206.001s119.666 82 198.999 82c50 0 92.5 -11.167 127.5 -33.5
s59.833 -48.5 74.5 -78.5v96h104zM141.002 271l-0.000976562 -1.00098c0.666992 -47.333 17.334 -90.666 50.001 -129.999s79.334 -59 140.001 -59c40 0 74.667 9.83301 104 29.5s51 45.834 65 78.501c11.333 24 17.666 51 18.999 81c1.33301 29.333 -4 56.333 -16 81
c-14 33.333 -36 60.333 -66 81s-66 31 -108 31c-55.333 0 -100.5 -18.833 -135.5 -56.5s-52.5 -82.834 -52.5 -135.501zM220.001 799.999l240 -133l-31 -64l-243 122z" />
    <glyph glyph-name="aacute" unicode="&#xe1;" horiz-adv-x="691" 
d="M622 544l0.00195312 -544h-104v95c-18.667 -36 -46 -63.5 -82 -82.5s-76 -28.5 -120 -28.5c-84.667 0 -152.334 28.167 -203.001 84.5s-76 124.166 -76 203.499c0 82.667 26.667 151.334 80 206.001s119.666 82 198.999 82c50 0 92.5 -11.167 127.5 -33.5
s59.833 -48.5 74.5 -78.5v96h104zM141.002 271l-0.000976562 -1.00098c0.666992 -47.333 17.334 -90.666 50.001 -129.999s79.334 -59 140.001 -59c40 0 74.667 9.83301 104 29.5s51 45.834 65 78.501c11.333 24 17.666 51 18.999 81c1.33301 29.333 -4 56.333 -16 81
c-14 33.333 -36 60.333 -66 81s-66 31 -108 31c-55.333 0 -100.5 -18.833 -135.5 -56.5s-52.5 -82.834 -52.5 -135.501zM221.001 670.999l239 134l35 -76l-242 -122z" />
    <glyph glyph-name="acircumflex" unicode="&#xe2;" horiz-adv-x="691" 
d="M622 544l0.00195312 -544h-104v95c-18.667 -36 -46 -63.5 -82 -82.5s-76 -28.5 -120 -28.5c-84.667 0 -152.334 28.167 -203.001 84.5s-76 124.166 -76 203.499c0 82.667 26.667 151.334 80 206.001s119.666 82 198.999 82c50 0 92.5 -11.167 127.5 -33.5
s59.833 -48.5 74.5 -78.5v96h104zM141.002 271l-0.000976562 -1.00098c0.666992 -47.333 17.334 -90.666 50.001 -129.999s79.334 -59 140.001 -59c40 0 74.667 9.83301 104 29.5s51 45.834 65 78.501c11.333 24 17.666 51 18.999 81c1.33301 29.333 -4 56.333 -16 81
c-14 33.333 -36 60.333 -66 81s-66 31 -108 31c-55.333 0 -100.5 -18.833 -135.5 -56.5s-52.5 -82.834 -52.5 -135.501zM375.001 769.999l170 -144h-109l-98 74l-99 -74h-109l173 144h72z" />
    <glyph glyph-name="atilde" unicode="&#xe3;" horiz-adv-x="691" 
d="M622 544l0.00195312 -544h-104v95c-18.667 -36 -46 -63.5 -82 -82.5s-76 -28.5 -120 -28.5c-84.667 0 -152.334 28.167 -203.001 84.5s-76 124.166 -76 203.499c0 82.667 26.667 151.334 80 206.001s119.666 82 198.999 82c50 0 92.5 -11.167 127.5 -33.5
s59.833 -48.5 74.5 -78.5v96h104zM141.002 271l-0.000976562 -1.00098c0.666992 -47.333 17.334 -90.666 50.001 -129.999s79.334 -59 140.001 -59c40 0 74.667 9.83301 104 29.5s51 45.834 65 78.501c11.333 24 17.666 51 18.999 81c1.33301 29.333 -4 56.333 -16 81
c-14 33.333 -36 60.333 -66 81s-66 31 -108 31c-55.333 0 -100.5 -18.833 -135.5 -56.5s-52.5 -82.834 -52.5 -135.501zM494.001 741.999l40 -70c-31.333 -25.333 -66.333 -38 -105 -38c-20 0 -49.333 5.33301 -88 16c-36 10 -62.333 15 -79 15
c-28.667 0 -54 -9.33301 -76 -28l-39 71c30 25.333 64.333 38 103 38c22.667 0 52 -5.33301 88 -16c32.667 -10 59.334 -15 80.001 -15c31.333 0 56.666 9 75.999 27z" />
    <glyph glyph-name="adieresis" unicode="&#xe4;" horiz-adv-x="691" 
d="M622 544l0.00195312 -544h-104v95c-18.667 -36 -46 -63.5 -82 -82.5s-76 -28.5 -120 -28.5c-84.667 0 -152.334 28.167 -203.001 84.5s-76 124.166 -76 203.499c0 82.667 26.667 151.334 80 206.001s119.666 82 198.999 82c50 0 92.5 -11.167 127.5 -33.5
s59.833 -48.5 74.5 -78.5v96h104zM141.002 271l-0.000976562 -1.00098c0.666992 -47.333 17.334 -90.666 50.001 -129.999s79.334 -59 140.001 -59c40 0 74.667 9.83301 104 29.5s51 45.834 65 78.501c11.333 24 17.666 51 18.999 81c1.33301 29.333 -4 56.333 -16 81
c-14 33.333 -36 60.333 -66 81s-66 31 -108 31c-55.333 0 -100.5 -18.833 -135.5 -56.5s-52.5 -82.834 -52.5 -135.501zM282.001 762.999v-135h-101v135h101zM485.001 762.999v-135h-101v135h101z" />
    <glyph glyph-name="aring" unicode="&#xe5;" horiz-adv-x="691" 
d="M622 544l0.00195312 -544h-104v95c-18.667 -36 -46 -63.5 -82 -82.5s-76 -28.5 -120 -28.5c-84.667 0 -152.334 28.167 -203.001 84.5s-76 124.166 -76 203.499c0 82.667 26.667 151.334 80 206.001s119.666 82 198.999 82c50 0 92.5 -11.167 127.5 -33.5
s59.833 -48.5 74.5 -78.5v96h104zM141.002 271l-0.000976562 -1.00098c0.666992 -47.333 17.334 -90.666 50.001 -129.999s79.334 -59 140.001 -59c40 0 74.667 9.83301 104 29.5s51 45.834 65 78.501c11.333 24 17.666 51 18.999 81c1.33301 29.333 -4 56.333 -16 81
c-14 33.333 -36 60.333 -66 81s-66 31 -108 31c-55.333 0 -100.5 -18.833 -135.5 -56.5s-52.5 -82.834 -52.5 -135.501zM330.001 811.999h1.00098c30 0 55.833 -10.833 77.5 -32.5s32.5 -47.834 32.5 -78.501c0 -30 -10.833 -55.833 -32.5 -77.5
s-47.834 -32.5 -78.501 -32.5s-56.834 10.833 -78.501 32.5s-32.5 47.5 -32.5 77.5c0 30.667 10.833 56.834 32.5 78.501s47.834 32.5 78.501 32.5zM330.002 754.999h-1c-14.667 0 -27 -5.16699 -37 -15.5s-15 -22.833 -15 -37.5s5.16699 -27 15.5 -37s22.833 -15 37.5 -15
s27.167 5 37.5 15s15.5 22.333 15.5 37s-5.16699 27.167 -15.5 37.5s-22.833 15.5 -37.5 15.5z" />
    <glyph glyph-name="ae" unicode="&#xe6;" horiz-adv-x="1119" 
d="M1081 242l-462.001 -0.000976562c4 -42 17.5 -76.5 40.5 -103.5s46.333 -44.667 70 -53s47.167 -12.5 70.5 -12.5c63.333 0 116.333 30.667 159 92h107c-23.333 -52.667 -57.166 -96 -101.499 -130s-96.5 -51 -156.5 -51c-44 0 -83 10.5 -117 31.5s-60 50.167 -78 87.5
v-103h-96v103c-15.333 -35.333 -41.166 -64 -77.499 -86s-76.833 -33 -121.5 -33c-46 0 -87.5 9.16699 -124.5 27.5s-66.5 41.833 -88.5 70.5s-38.833 59.334 -50.5 92.001s-17.5 65 -17.5 97c0 82 26.667 150.667 80 206s120.666 83 201.999 83
c45.333 0 85.5 -10.333 120.5 -31s60.833 -48.667 77.5 -84v99h96v-98c41.333 76 105.333 114 192 114c77.333 0 142.666 -27.667 195.999 -83c60.667 -62 87.334 -140.333 80.001 -235zM140.999 273.999v-1.00098c0 -55.333 18.167 -101.166 54.5 -137.499
s81.833 -54.5 136.5 -54.5c51.333 0 95 18.833 131 56.5s54 82.167 54 133.5c0 53.333 -17.333 98.333 -52 135c-36.667 38 -82 57 -136 57c-56.667 0 -102.167 -19.5 -136.5 -58.5s-51.5 -82.5 -51.5 -130.5zM620.999 313.998h358.002
c-10.667 52 -31.834 91.167 -63.501 117.5s-69.834 39.5 -114.501 39.5c-54 0 -98.333 -18.667 -133 -56c-23.333 -25.333 -39 -59 -47 -101z" />
    <glyph glyph-name="ccedilla" unicode="&#xe7;" horiz-adv-x="637" 
d="M335 -15l-20.0029 -40.001c4.66699 2 10.667 3 18 3c21.333 0 40 -7.5 56 -22.5s24 -34.833 24 -59.5c0 -24 -8.33301 -45.167 -25 -63.5s-40 -27.5 -70 -27.5c-9.33301 0 -19.166 1 -29.499 3s-22.666 9.5 -36.999 22.5s-23.166 30.833 -26.499 53.5h54
c6.66699 -20.667 19.667 -31 39 -31c12 0 21.667 3.83301 29 11.5s11.333 18.167 12 31.5c-0.666992 12 -4.83398 21.5 -12.501 28.5s-16.834 10.5 -27.501 10.5c-13.333 0 -24.333 -6.33301 -33 -19l-46 21l38 82c-70 10.667 -127.667 42.334 -173 95.001
s-68 115.667 -68 189c0 80.667 27.333 148.667 82 204s122.667 83 204 83c66 0 125.167 -19 177.5 -57s86.833 -89.333 103.5 -154h-107c-14 34.667 -36.333 62 -67 82s-65 30 -103 30c-51.333 0 -95.666 -17.667 -132.999 -53c-35.333 -34 -53 -79.333 -53 -136
c0 -55.333 17.833 -101 53.5 -137s79.834 -54 132.501 -54c42.667 0.666992 78.667 11.667 108 33s50 47 62 77h107c-16.667 -58.667 -49.167 -107 -97.5 -145s-105.5 -58.333 -171.5 -61z" />
    <glyph glyph-name="egrave" unicode="&#xe8;" horiz-adv-x="634" 
d="M600 239l-465.001 -0.000976562c2.66699 -51.333 22.5 -91.833 59.5 -121.5s78.167 -44.5 123.5 -44.5c72.667 0 125 30.667 157 92h108c-25.333 -58.667 -62 -103.667 -110 -135c-45.333 -30.667 -97 -46 -155 -46c-85.333 0 -154.666 28.833 -207.999 86.5
s-80 124.5 -80 200.5c0 79.333 27.5 147.333 82.5 204s123.167 85 204.5 85c79.333 0 146.333 -26.667 201 -80c64 -65.333 91.333 -145.666 82 -240.999zM136.999 319.999l360 0.000976562c-2.66699 38.667 -21.167 73.667 -55.5 105s-75.833 46.666 -124.5 45.999
c-50.667 0 -92.667 -15.333 -126 -46s-51.333 -65.667 -54 -105zM199.999 800l240 -133l-32 -64l-242 122z" />
    <glyph glyph-name="eacute" unicode="&#xe9;" horiz-adv-x="634" 
d="M600 239l-465.001 -0.000976562c2.66699 -51.333 22.5 -91.833 59.5 -121.5s78.167 -44.5 123.5 -44.5c72.667 0 125 30.667 157 92h108c-25.333 -58.667 -62 -103.667 -110 -135c-45.333 -30.667 -97 -46 -155 -46c-85.333 0 -154.666 28.833 -207.999 86.5
s-80 124.5 -80 200.5c0 79.333 27.5 147.333 82.5 204s123.167 85 204.5 85c79.333 0 146.333 -26.667 201 -80c64 -65.333 91.333 -145.666 82 -240.999zM136.999 319.999l360 0.000976562c-2.66699 38.667 -21.167 73.667 -55.5 105s-75.833 46.666 -124.5 45.999
c-50.667 0 -92.667 -15.333 -126 -46s-51.333 -65.667 -54 -105zM192.999 671l238 134l36 -76l-243 -122z" />
    <glyph glyph-name="ecircumflex" unicode="&#xea;" horiz-adv-x="634" 
d="M600 239l-465.001 -0.000976562c2.66699 -51.333 22.5 -91.833 59.5 -121.5s78.167 -44.5 123.5 -44.5c72.667 0 125 30.667 157 92h108c-25.333 -58.667 -62 -103.667 -110 -135c-45.333 -30.667 -97 -46 -155 -46c-85.333 0 -154.666 28.833 -207.999 86.5
s-80 124.5 -80 200.5c0 79.333 27.5 147.333 82.5 204s123.167 85 204.5 85c79.333 0 146.333 -26.667 201 -80c64 -65.333 91.333 -145.666 82 -240.999zM136.999 319.999l360 0.000976562c-2.66699 38.667 -21.167 73.667 -55.5 105s-75.833 46.666 -124.5 45.999
c-50.667 0 -92.667 -15.333 -126 -46s-51.333 -65.667 -54 -105zM353.999 770l170 -144h-108l-99 74l-98 -74h-109l172 144h72z" />
    <glyph glyph-name="edieresis" unicode="&#xeb;" horiz-adv-x="634" 
d="M600 239l-465.001 -0.000976562c2.66699 -51.333 22.5 -91.833 59.5 -121.5s78.167 -44.5 123.5 -44.5c72.667 0 125 30.667 157 92h108c-25.333 -58.667 -62 -103.667 -110 -135c-45.333 -30.667 -97 -46 -155 -46c-85.333 0 -154.666 28.833 -207.999 86.5
s-80 124.5 -80 200.5c0 79.333 27.5 147.333 82.5 204s123.167 85 204.5 85c79.333 0 146.333 -26.667 201 -80c64 -65.333 91.333 -145.666 82 -240.999zM136.999 319.999l360 0.000976562c-2.66699 38.667 -21.167 73.667 -55.5 105s-75.833 46.666 -124.5 45.999
c-50.667 0 -92.667 -15.333 -126 -46s-51.333 -65.667 -54 -105zM263.999 763v-135h-101v135h101zM466.999 763v-135h-101v135h101z" />
    <glyph glyph-name="igrave" unicode="&#xec;" horiz-adv-x="240" 
d="M68 0v544h104v-544h-104zM-18 800l240 -133l-31 -64l-243 122z" />
    <glyph glyph-name="iacute" unicode="&#xed;" horiz-adv-x="240" 
d="M68 0v544h104v-544h-104zM17 671l239 134l35 -76l-242 -122z" />
    <glyph glyph-name="icircumflex" unicode="&#xee;" horiz-adv-x="240" 
d="M68 0v544h104v-544h-104zM158 770l170 -144h-109l-98 74l-98 -74h-110l173 144h72z" />
    <glyph glyph-name="idieresis" unicode="&#xef;" horiz-adv-x="240" 
d="M68 0v544h104v-544h-104zM69 763v-135h-100v135h100zM272 763v-135h-101v135h101z" />
    <glyph glyph-name="eth" unicode="&#xf0;" horiz-adv-x="655" 
d="M326 617l-230.001 -65v72l150 42c-27.333 14 -69.666 31 -126.999 51l109 32c41.333 -14 84 -33 128 -57l206 57v-72l-130 -36c58.667 -37.333 105 -86.666 139 -147.999c31.333 -58.667 47 -125.334 47 -200.001c0 -90.667 -27.833 -164.5 -83.5 -221.5
s-124.834 -85.833 -207.501 -86.5c-80.667 0 -149 26 -205 78s-84.333 121.333 -85 208c0.666992 86 27 154.667 79 206s114.667 77.333 188 78c62.667 0 113.667 -21.333 153 -64c-8 17.333 -19.333 33.666 -34 48.999c-29.333 32.667 -61.666 58.334 -96.999 77.001z
M140.999 273l0.000976562 -1c0 -52.667 17.167 -97.5 51.5 -134.5s79.5 -55.5 135.5 -55.5s101 19 135 57s51 82.667 51 134c0 50 -17.333 94.167 -52 132.5s-78.334 57.5 -131.001 57.5c-58 0 -104.167 -18.5 -138.5 -55.5s-51.5 -81.833 -51.5 -134.5z" />
    <glyph glyph-name="ntilde" unicode="&#xf1;" horiz-adv-x="636" 
d="M68 0l0.000976562 543.998h98v-84c14 30 36.667 54.333 68 73s70 27.667 116 27c41.333 -0.666992 77 -8 107 -22s52.833 -33.167 68.5 -57.5s27 -49.666 34 -75.999s10.5 -54.833 10.5 -85.5v-319h-105v295c0 52.667 -11.333 93.834 -34 123.501
s-59.334 44.167 -110.001 43.5c-49.333 -0.666992 -86.5 -15.167 -111.5 -43.5s-37.5 -66.833 -37.5 -115.5v-303h-104zM473.001 741.998l38.999 -70c-31.333 -25.333 -66.333 -38 -105 -38c-20 0 -49.333 5.33301 -88 16c-36 10 -62.333 15 -79 15
c-28.667 0 -54 -9.33301 -76 -28l-39 71c30 25.333 64.333 38 103 38c22.667 0 52 -5.33301 88 -16c32.667 -10 59.334 -15 80.001 -15c31.333 0 57 9 77 27z" />
    <glyph glyph-name="ograve" unicode="&#xf2;" horiz-adv-x="655" 
d="M37 272v0.999023c0 76.667 26.5 143.667 79.5 201s123.167 86 210.5 86s157.5 -28.667 210.5 -86s79.5 -124.666 79.5 -201.999s-26.5 -144.5 -79.5 -201.5s-123.167 -85.5 -210.5 -85.5s-157.5 28.5 -210.5 85.5s-79.5 124.167 -79.5 201.5zM141 271.999v-1
c0 -54 18 -99 54 -135s80 -54 132 -54s96 18.167 132 54.5s54 81.5 54 135.5s-18 99.167 -54 135.5s-80 54.5 -132 54.5s-96 -18.167 -132 -54.5s-54 -81.5 -54 -135.5zM210 799.999l240 -133l-31 -64l-243 122z" />
    <glyph glyph-name="oacute" unicode="&#xf3;" horiz-adv-x="655" 
d="M37 272v0.999023c0 76.667 26.5 143.667 79.5 201s123.167 86 210.5 86s157.5 -28.667 210.5 -86s79.5 -124.666 79.5 -201.999s-26.5 -144.5 -79.5 -201.5s-123.167 -85.5 -210.5 -85.5s-157.5 28.5 -210.5 85.5s-79.5 124.167 -79.5 201.5zM141 271.999v-1
c0 -54 18 -99 54 -135s80 -54 132 -54s96 18.167 132 54.5s54 81.5 54 135.5s-18 99.167 -54 135.5s-80 54.5 -132 54.5s-96 -18.167 -132 -54.5s-54 -81.5 -54 -135.5zM203 670.999l239 134l35 -76l-242 -122z" />
    <glyph glyph-name="ocircumflex" unicode="&#xf4;" horiz-adv-x="655" 
d="M37 272v0.999023c0 76.667 26.5 143.667 79.5 201s123.167 86 210.5 86s157.5 -28.667 210.5 -86s79.5 -124.666 79.5 -201.999s-26.5 -144.5 -79.5 -201.5s-123.167 -85.5 -210.5 -85.5s-157.5 28.5 -210.5 85.5s-79.5 124.167 -79.5 201.5zM141 271.999v-1
c0 -54 18 -99 54 -135s80 -54 132 -54s96 18.167 132 54.5s54 81.5 54 135.5s-18 99.167 -54 135.5s-80 54.5 -132 54.5s-96 -18.167 -132 -54.5s-54 -81.5 -54 -135.5zM365 769.999l170 -144h-109l-98 74l-98 -74h-110l173 144h72z" />
    <glyph glyph-name="otilde" unicode="&#xf5;" horiz-adv-x="655" 
d="M37 272v0.999023c0 76.667 26.5 143.667 79.5 201s123.167 86 210.5 86s157.5 -28.667 210.5 -86s79.5 -124.666 79.5 -201.999s-26.5 -144.5 -79.5 -201.5s-123.167 -85.5 -210.5 -85.5s-157.5 28.5 -210.5 85.5s-79.5 124.167 -79.5 201.5zM141 271.999v-1
c0 -54 18 -99 54 -135s80 -54 132 -54s96 18.167 132 54.5s54 81.5 54 135.5s-18 99.167 -54 135.5s-80 54.5 -132 54.5s-96 -18.167 -132 -54.5s-54 -81.5 -54 -135.5zM482 741.999l38.999 -70c-30.667 -25.333 -65.667 -38 -105 -38c-19.333 0 -48.333 5.33301 -87 16
c-37.333 10 -63.666 15 -78.999 15c-28 0 -53.667 -9.33301 -77 -28l-39 71c30 25.333 64.333 38 103 38c24 0 53.333 -5.33301 88 -16c34 -10 60.667 -15 80 -15c31.333 0 57 9 77 27z" />
    <glyph glyph-name="odieresis" unicode="&#xf6;" horiz-adv-x="655" 
d="M37 272v0.999023c0 76.667 26.5 143.667 79.5 201s123.167 86 210.5 86s157.5 -28.667 210.5 -86s79.5 -124.666 79.5 -201.999s-26.5 -144.5 -79.5 -201.5s-123.167 -85.5 -210.5 -85.5s-157.5 28.5 -210.5 85.5s-79.5 124.167 -79.5 201.5zM141 271.999v-1
c0 -54 18 -99 54 -135s80 -54 132 -54s96 18.167 132 54.5s54 81.5 54 135.5s-18 99.167 -54 135.5s-80 54.5 -132 54.5s-96 -18.167 -132 -54.5s-54 -81.5 -54 -135.5zM276 762.999v-135h-100v135h100zM479 762.999v-135h-100v135h100z" />
    <glyph glyph-name="divide" unicode="&#xf7;" horiz-adv-x="600" 
d="M350 535v-125h-100v125h100zM49 201v101h502v-101h-502zM350 93v-124h-100v124h100z" />
    <glyph glyph-name="oslash" unicode="&#xf8;" horiz-adv-x="655" 
d="M499 578l106 0.000976562l-73 -100c56.667 -56.667 85 -125.334 85 -206.001c0 -78 -26.5 -145.5 -79.5 -202.5s-122.833 -85.5 -209.5 -85.5c-52 0 -97.333 11 -136 33l-37 -51h-106l73 99c-56.667 53.333 -85 122 -85 206c0 78 26.5 145.667 79.5 203
s123.5 86 211.5 86c54 0 99 -11 135 -33zM189 150.001l215 293c-22 12.667 -47.333 19 -76 19c-53.333 0 -97.833 -18.167 -133.5 -54.5s-53.5 -81.5 -53.5 -135.5c0 -51.333 16 -92 48 -122zM466 392.001l-214.001 -291c23.333 -13.333 48.333 -20 75 -20
c54.667 0 99.334 18.5 134.001 55.5s52 82.167 52 135.5c0 50 -15.667 90 -47 120z" />
    <glyph glyph-name="ugrave" unicode="&#xf9;" horiz-adv-x="637" 
d="M569 544v-544.001h-98v84c-14 -30 -36.667 -54.333 -68 -73s-70 -27.667 -116 -27c-42 0 -78 7.16699 -108 21.5s-52.667 33.5 -68 57.5s-26.5 49.333 -33.5 76s-10.5 55.334 -10.5 86.001v319h104v-295c0 -112 48.333 -168 145 -168
c49.333 0.666992 86.5 15.167 111.5 43.5s37.5 66.833 37.5 115.5v304h104zM169 799.999l240 -133l-32 -64l-243 122z" />
    <glyph glyph-name="uacute" unicode="&#xfa;" horiz-adv-x="637" 
d="M569 544v-544.001h-98v84c-14 -30 -36.667 -54.333 -68 -73s-70 -27.667 -116 -27c-42 0 -78 7.16699 -108 21.5s-52.667 33.5 -68 57.5s-26.5 49.333 -33.5 76s-10.5 55.334 -10.5 86.001v319h104v-295c0 -112 48.333 -168 145 -168
c49.333 0.666992 86.5 15.167 111.5 43.5s37.5 66.833 37.5 115.5v304h104zM216 670.999l238 134l36 -76l-243 -122z" />
    <glyph glyph-name="ucircumflex" unicode="&#xfb;" horiz-adv-x="637" 
d="M569 544v-544.001h-98v84c-14 -30 -36.667 -54.333 -68 -73s-70 -27.667 -116 -27c-42 0 -78 7.16699 -108 21.5s-52.667 33.5 -68 57.5s-26.5 49.333 -33.5 76s-10.5 55.334 -10.5 86.001v319h104v-295c0 -112 48.333 -168 145 -168
c49.333 0.666992 86.5 15.167 111.5 43.5s37.5 66.833 37.5 115.5v304h104zM356 769.999l170 -144h-109l-98 74l-98 -74h-110l173 144h72z" />
    <glyph glyph-name="udieresis" unicode="&#xfc;" horiz-adv-x="637" 
d="M569 544v-544.001h-98v84c-14 -30 -36.667 -54.333 -68 -73s-70 -27.667 -116 -27c-42 0 -78 7.16699 -108 21.5s-52.667 33.5 -68 57.5s-26.5 49.333 -33.5 76s-10.5 55.334 -10.5 86.001v319h104v-295c0 -112 48.333 -168 145 -168
c49.333 0.666992 86.5 15.167 111.5 43.5s37.5 66.833 37.5 115.5v304h104zM267 762.999v-135h-100v135h100zM470 762.999v-135h-100v135h100z" />
    <glyph glyph-name="yacute" unicode="&#xfd;" horiz-adv-x="532" 
d="M123 -198l90 214l-208 528h112l150 -398l152 398h112l-297 -742h-111zM177 671l238 134l36 -76l-243 -122z" />
    <glyph glyph-name="thorn" unicode="&#xfe;" horiz-adv-x="689" 
d="M68 -198v938.001h104v-220v-67c20.667 35.333 49.5 62 86.5 80s76.167 27 117.5 27c43.333 0 83 -8.5 119 -25.5s65.167 -39.333 87.5 -67s39.5 -58.667 51.5 -93s18 -69.5 18 -105.5c0 -80.667 -26.167 -148.334 -78.5 -203.001s-117.833 -82 -196.5 -82
c-49.333 0 -91.5 10.333 -126.5 31s-61.167 45.667 -78.5 75v-69v-219h-104zM548 272.001v1c0 52 -17.667 96.5 -53 133.5s-81 55.5 -137 55.5c-54.667 0 -100 -18.667 -136 -56c-36.667 -38 -55 -83.333 -55 -136c0 -48 17.667 -91.333 53 -130
c37.333 -39.333 83.333 -59 138 -59c55.333 0 100.833 18.5 136.5 55.5s53.5 82.167 53.5 135.5z" />
    <glyph glyph-name="ydieresis" unicode="&#xff;" horiz-adv-x="532" 
d="M123 -198l90 214l-208 528h112l150 -398l152 398h112l-297 -742h-111zM215 763v-135h-101v135h101zM418 763v-135h-101v135h101z" />
    <glyph glyph-name="dotlessi" unicode="&#x131;" horiz-adv-x="240" 
d="M68 0v544h104v-544h-104z" />
    <glyph glyph-name="Lslash" unicode="&#x141;" horiz-adv-x="458" 
d="M4 213v119l72 53v355h118v-270l130 94v-119l-130 -96v-245h261v-104h-379v266z" />
    <glyph glyph-name="lslash" unicode="&#x142;" horiz-adv-x="287" 
d="M90 296l-69 -48v109l69 47v336h104v-270l80 55v-107l-80 -56v-362h-104v296z" />
    <glyph glyph-name="OE" unicode="&#x152;" horiz-adv-x="1127" 
d="M804 636l-0.00195312 -210.001h263v-103h-263v-219h268v-104h-382v65v65c-30 -46 -69.167 -81.5 -117.5 -106.5s-99.166 -37.5 -152.499 -37.5c-108 0 -198.667 36.833 -272 110.5s-110 164.5 -110 272.5c0 106.667 35.833 197.5 107.5 272.5s163.5 112.5 275.5 112.5
c65.333 0 121.333 -13.667 168 -41s80.334 -61.666 101.001 -102.999v66v64h382v-104h-268zM154.998 368.999l0.000976562 -0.999023c0 -74 24.5 -138.833 73.5 -194.5s113.167 -83.5 192.5 -83.5s143.833 27.667 193.5 83s74.5 121.666 74.5 198.999
c-1.33301 78.667 -26.833 144.667 -76.5 198s-113.167 80 -190.5 80c-78.667 0 -142.834 -27.333 -192.501 -82s-74.5 -121 -74.5 -199z" />
    <glyph glyph-name="oe" unicode="&#x153;" horiz-adv-x="1112" 
d="M1074 243l-461.997 0.000976562c3.33301 -52.667 22.166 -94.167 56.499 -124.5s75.166 -45.5 122.499 -45.5c36 0 67.833 8.16699 95.5 24.5s48.5 38.833 62.5 67.5h108c-23.333 -52.667 -54 -93.667 -92 -123c-51.333 -38.667 -108.333 -58 -171 -58
c-60 0 -109.5 13.833 -148.5 41.5s-67.167 60.5 -84.5 98.5c-20 -42.667 -50.333 -76.667 -91 -102s-89.334 -38 -146.001 -38c-60 0 -112.5 15.167 -157.5 45.5s-77.833 66.833 -98.5 109.5s-31 86.667 -31 132c0 80 27.167 148.167 81.5 204.5s124.5 84.5 210.5 84.5
c51.333 0 98 -13 140 -39s72.667 -59.333 92 -100c16.667 34.667 45 66.167 85 94.5s88.667 42.5 146 42.5c80 0 147.333 -28.333 202 -85c30 -30.667 52.167 -66.334 66.5 -107.001s18.833 -81.667 13.5 -123zM141.003 272.001v-0.999023c0 -53.333 18 -98.333 54 -135
s80.333 -55 133 -55c54 0 98.167 19.5 132.5 58.5s51.5 82.833 51.5 131.5c0 49.333 -17.333 93.666 -52 132.999s-78.667 59 -132 59c-51.333 0 -95.333 -17.833 -132 -53.5s-55 -81.5 -55 -137.5zM616.003 315.002h353.999c-5.33301 39.333 -23.833 74.833 -55.5 106.5
s-72.167 47.5 -121.5 47.5c-45.333 0 -84.666 -14.333 -117.999 -43s-53 -65.667 -59 -111z" />
    <glyph glyph-name="Scaron" unicode="&#x160;" horiz-adv-x="548" 
d="M34 219l117.003 -0.00390625c2 -26 7.66699 -48.333 17 -67s20.833 -32.5 34.5 -41.5s26.5 -15.333 38.5 -19s23.667 -5.5 35 -5.5c33.333 0 62.166 11.5 86.499 34.5s36.5 50.833 36.5 83.5c0 18 -3.33301 33.667 -10 47s-17.167 24.833 -31.5 34.5
s-29 17.834 -44 24.501s-34.833 14.334 -59.5 23.001c-8.66699 2.66699 -15.334 5 -20.001 7c-17.333 5.33301 -31.666 10.333 -42.999 15s-27 12.667 -47 24s-36.167 23.5 -48.5 36.5s-23.5 30.5 -33.5 52.5s-15 46.333 -15 73c-0.666992 65.333 22.333 117.166 69 155.499
s101.334 57.5 164.001 57.5c25.333 0 50 -3.66699 74 -11s47 -18.5 69 -33.5s40.333 -36.333 55 -64s23 -59.5 25 -95.5h-116c-2.66699 12.667 -5.83398 23.834 -9.50098 33.501s-9.33398 20.5 -17.001 32.5s-18.667 21.333 -33 28s-31.5 10 -51.5 10
c-30.667 0 -57 -9.66699 -79 -29s-33 -44.333 -33 -75c0 -17.333 2.83301 -31.833 8.5 -43.5s16.667 -22.667 33 -33s32.166 -18.666 47.499 -24.999s40 -15.833 74 -28.5c4.66699 -2 8.33398 -3.33301 11.001 -4c27.333 -11.333 50 -22.166 68 -32.499
s36.167 -23.5 54.5 -39.5s32.166 -35.167 41.499 -57.5s14 -47.833 14 -76.5c0 -63.333 -21 -116.5 -63 -159.5s-100.667 -64.5 -176 -64.5c-73.333 0 -132 21 -176 63s-66.333 98.667 -67 170zM67.0029 937.996h109l98 -74l98 74h109l-171 -144h-73z" />
    <glyph glyph-name="scaron" unicode="&#x161;" horiz-adv-x="466" 
d="M411 402l-103.003 0.00195312c0 22 -6.83301 39.833 -20.5 53.5s-33.167 20.167 -58.5 19.5c-24.667 0 -44 -6.83301 -58 -20.5s-20.667 -30.167 -20 -49.5c0.666992 -20 9.33398 -36 26.001 -48s41 -22.333 73 -31c16.667 -4.66699 28.834 -8.16699 36.501 -10.5
s19 -6.16602 34 -11.499s26.333 -10.5 34 -15.5s16.834 -11.667 27.501 -20s18.667 -17.333 24 -27s10 -21.334 14 -35.001s6.33301 -28.5 7 -44.5c0.666992 -52 -17.666 -94.667 -54.999 -128s-83.666 -50 -138.999 -50c-30.667 0 -60.167 5.5 -88.5 16.5
s-53.333 30.167 -75 57.5s-33.167 60.333 -34.5 99h103c2 -30 12.667 -52.167 32 -66.5s40.666 -21.5 63.999 -21.5c25.333 0 46.5 7.83301 63.5 23.5s25.5 34.834 25.5 57.501c-0.666992 25.333 -10.667 44.666 -30 57.999s-55.666 28.666 -108.999 45.999
c-43.333 13.333 -76.833 30.666 -100.5 51.999s-35.834 51 -36.501 89c0 50 17.667 90 53 120s78.666 45 129.999 45c20 0 39.667 -2.66699 59 -8s38 -13.666 56 -24.999s33 -27.833 45 -49.5s19 -46.834 21 -75.501zM25.9971 764.002h109l98 -74l98 74h109l-171 -144h-73z
" />
    <glyph glyph-name="Ydieresis" unicode="&#x178;" horiz-adv-x="605" 
d="M244 0v263l-232 477h128l163 -366l163 366h128l-232 -477v-263h-118zM251 935v-135h-100v135h100zM454 935v-135h-100v135h100z" />
    <glyph glyph-name="Zcaron" unicode="&#x17d;" horiz-adv-x="499" 
d="M478 648l-317 -544h326v-104h-469v76l327 560h-333v104h466v-92zM40 932h109l99 -74l98 74h109l-172 -143h-73z" />
    <glyph glyph-name="zcaron" unicode="&#x17e;" horiz-adv-x="427" 
d="M14 0v74l276 389h-268v81h383v-82l-267 -381h275v-81h-399zM15 761h109l98 -74l98 74h109l-171 -143h-73z" />
    <glyph glyph-name="florin" unicode="&#x192;" 
d="M387 516l103 -0.000976562v-81h-117l-72 -397c-13.333 -77.333 -32.666 -132.666 -57.999 -165.999c-40.667 -53.333 -99.334 -80 -176.001 -80c-23.333 0 -42.333 2.33301 -57 7l17 95c16 -4 27.333 -6 34 -6c24 0 44.167 3.5 60.5 10.5s29 17.833 38 32.5
s15.5 28.5 19.5 41.5s8 29.833 12 50.5l74 412h-104v81h118c12.667 86 38.334 147.333 77.001 184c37.333 36 84.333 54 141 54c12 0 24 -1 36 -3l-15 -85c-11.333 0 -20.333 -0.333008 -27 -1c-28.667 -4 -50.334 -15.333 -65.001 -34
c-16.667 -18 -29.667 -56.333 -39 -115z" />
    <glyph glyph-name="circumflex" unicode="&#x2c6;" horiz-adv-x="555" 
d="M315 770l170 -144h-109l-98 74l-99 -74h-109l173 144h72z" />
    <glyph glyph-name="caron" unicode="&#x2c7;" horiz-adv-x="555" 
d="M70 764h109l98 -74l99 74h109l-172 -144h-73z" />
    <glyph glyph-name="uni02C9" unicode="&#x2c9;" horiz-adv-x="555" 
d="M456 735v-83h-358v83h358z" />
    <glyph glyph-name="breve" unicode="&#x2d8;" horiz-adv-x="555" 
d="M78 749l85 0.000976562c12.667 -14.667 26.667 -25.334 42 -32.001c18.667 -7.33301 43.667 -11 75 -11c56 0 93.333 14.333 112 43h85c-6.66699 -36.667 -28.167 -66 -64.5 -88s-81.5 -33 -135.5 -33c-48.667 0 -91.5 10.333 -128.5 31s-60.5 50.667 -70.5 90z" />
    <glyph glyph-name="dotaccent" unicode="&#x2d9;" horiz-adv-x="555" 
d="M328 763v-135h-101v135h101z" />
    <glyph glyph-name="ring" unicode="&#x2da;" horiz-adv-x="555" 
d="M277 812h1.00098c30 0 55.833 -10.833 77.5 -32.5s32.5 -47.834 32.5 -78.501c0 -30 -10.833 -55.833 -32.5 -77.5s-47.834 -32.5 -78.501 -32.5s-56.667 10.833 -78 32.5s-32 47.5 -32 77.5c0 30.667 10.667 56.834 32 78.501s47.333 32.5 78 32.5zM277.001 755h-1
c-14.667 0 -27 -5.16699 -37 -15.5s-15 -22.833 -15 -37.5s5.16699 -27 15.5 -37s22.833 -15 37.5 -15s27.167 5 37.5 15s15.5 22.333 15.5 37s-5.16699 27.167 -15.5 37.5s-22.833 15.5 -37.5 15.5z" />
    <glyph glyph-name="ogonek" unicode="&#x2db;" horiz-adv-x="555" 
d="M270 0l58.999 -0.00195312c-2 -1.33301 -5.5 -3.83301 -10.5 -7.5s-8.5 -6.16699 -10.5 -7.5s-5.16699 -3.66602 -9.5 -6.99902s-7.5 -5.83301 -9.5 -7.5s-4.66699 -4.16699 -8 -7.5s-5.83301 -6.16602 -7.5 -8.49902l-6 -8.5c-2.33301 -3.33301 -4 -6.5 -5 -9.5
s-1.83301 -6.33301 -2.5 -10s-1 -7.5 -1 -11.5c0 -16 6 -29.667 18 -41s26 -17 42 -17c12 0 29 4 51 12v-60c-27.333 -10 -51.666 -15 -72.999 -15c-34.667 0 -62 9.16699 -82 27.5s-30 41.5 -30 69.5c0 22.667 7 42 21 58s35.333 33 64 51z" />
    <glyph glyph-name="tilde" unicode="&#x2dc;" horiz-adv-x="555" 
d="M432 742l38.999 -70c-30.667 -25.333 -65.667 -38 -105 -38c-18.667 0 -48 5.33301 -88 16c-36 10 -62.333 15 -79 15c-27.333 0 -52.666 -9.33301 -75.999 -28l-39 71c30 25.333 64.333 38 103 38c22.667 0 52 -5.33301 88 -16c34 -10 60.667 -15 80 -15
c31.333 0 57 9 77 27z" />
    <glyph glyph-name="hungarumlaut" unicode="&#x2dd;" horiz-adv-x="555" 
d="M95 660l166 146l59 -62l-173 -138zM290 660l166 146l60 -62l-174 -138z" />
    <glyph glyph-name="uni03A9" unicode="&#x3a9;" horiz-adv-x="756" 
d="M197 87l-0.000976562 3.00195c-39.333 36 -71.833 80.833 -97.5 134.5s-38.5 113.5 -38.5 179.5c0 99.333 30.167 182.166 90.5 248.499s136.833 99.5 229.5 99.5c62.667 0 118.334 -16.833 167.001 -50.5s85 -76.167 109 -127.5s36 -106 36 -164
c0 -68 -13.333 -130 -40 -186s-59.334 -100.667 -98.001 -134v-3h153v-87h-266v64c40.667 26.667 74.834 67.667 102.501 123s41.5 122.333 41.5 201c0 46.667 -7.5 90.5 -22.5 131.5s-38.667 75.167 -71 102.5s-69.833 41 -112.5 41c-63.333 0 -114.5 -26.333 -153.5 -79
s-58.5 -119.334 -58.5 -200.001c0 -74 14.167 -139.667 42.5 -197s62.5 -98.333 102.5 -123v-64h-267v87h151z" />
    <glyph glyph-name="uni03BC" unicode="&#x3bc;" horiz-adv-x="601" 
d="M64 -186l0.000976562 730h104v-286c0 -58 9.33301 -100.333 28 -127c24 -33.333 58.333 -50 103 -50s78.667 18 102 54c23.333 34 35 82.333 35 145v264h104v-544h-100v91c-28.667 -68 -75.334 -102 -140.001 -102c-60.667 0 -104.667 23.333 -132 70v-68v-177h-104z" />
    <glyph glyph-name="pi" unicode="&#x3c0;" horiz-adv-x="620" 
d="M593 463l-80.001 -0.000976562v-306c0 -66 5 -118.333 15 -157h-103c-12 22 -18 72 -18 150v313h-170c-2.66699 -71.333 -11 -154.166 -25 -248.499s-30 -165.833 -48 -214.5h-103c18.667 57.333 34.834 132 48.501 224s21.167 171.667 22.5 239c-48 0 -85 -4 -111 -12
l-14 70c30 21.333 84.333 32 163 32h432z" />
    <glyph glyph-name="endash" unicode="&#x2013;" horiz-adv-x="500" 
d="M35 335h430v-103h-430v103z" />
    <glyph glyph-name="emdash" unicode="&#x2014;" horiz-adv-x="1000" 
d="M35 335h930v-103h-930v103z" />
    <glyph glyph-name="quoteleft" unicode="&#x2018;" horiz-adv-x="297" 
d="M181 740l75 -207h-81l-87 207h93z" />
    <glyph glyph-name="quoteright" unicode="&#x2019;" horiz-adv-x="297" 
d="M41 533l75 207h94l-88 -207h-81z" />
    <glyph glyph-name="quotesinglbase" unicode="&#x201a;" horiz-adv-x="297" 
d="M41 -89l75 207h94l-88 -207h-81z" />
    <glyph glyph-name="quotedblleft" unicode="&#x201c;" horiz-adv-x="472" 
d="M202 740l75 -207h-81l-87 207h93zM344 740l75 -207h-81l-87 207h93z" />
    <glyph glyph-name="quotedblright" unicode="&#x201d;" horiz-adv-x="472" 
d="M53 533l75 207h93l-87 -207h-81zM195 533l75 207h93l-87 -207h-81z" />
    <glyph glyph-name="quotedblbase" unicode="&#x201e;" horiz-adv-x="472" 
d="M53 -89l75 207h93l-87 -207h-81zM195 -89l75 207h93l-87 -207h-81z" />
    <glyph glyph-name="dagger" unicode="&#x2020;" horiz-adv-x="627" 
d="M366 740v-194h170v-90h-170v-635h-105v635h-170v90h170v194h105z" />
    <glyph glyph-name="daggerdbl" unicode="&#x2021;" horiz-adv-x="627" 
d="M366 740v-164h170v-91h-170v-363h170v-91h-170v-210h-104v210h-171v91h171v363h-171v91h171v164h104z" />
    <glyph glyph-name="bullet" unicode="&#x2022;" horiz-adv-x="576" 
d="M289 499h1c33.333 0 61.833 -12.167 85.5 -36.5s35.5 -53.5 35.5 -87.5s-12 -63 -36 -87s-53 -36 -87 -36s-63 12 -87 36s-36 53 -36 87s11.833 63.167 35.5 87.5s53.167 36.5 88.5 36.5z" />
    <glyph glyph-name="ellipsis" unicode="&#x2026;" horiz-adv-x="1000" 
d="M113 0v131h109v-131h-109zM446 0v131h109v-131h-109zM779 0v131h109v-131h-109z" />
    <glyph glyph-name="perthousand" unicode="&#x2030;" horiz-adv-x="1182" 
d="M29 581v1c0 48 16.5 88.667 49.5 122s73.833 50 122.5 50s89.667 -16.667 123 -50s50 -74.333 50 -123s-16.667 -89.5 -50 -122.5s-74.333 -49.5 -123 -49.5c-48 0 -88.667 16.5 -122 49.5s-50 73.833 -50 122.5zM103 581l0.000976562 -1c0 -28 9.33301 -51.5 28 -70.5
s42 -28.5 70 -28.5s51.5 9.66699 70.5 29s28.5 43.333 28.5 72s-9.33301 52.5 -28 71.5s-42.334 28.5 -71.001 28.5s-52.167 -9.5 -70.5 -28.5s-27.5 -43.167 -27.5 -72.5zM420.001 159v1c0 48 16.667 88.667 50 122s74.333 50 123 50c48 0 88.667 -16.667 122 -50
s50 -74.333 50 -123s-16.667 -89.667 -50 -123s-74 -50 -122 -50c-48.667 0 -89.667 16.5 -123 49.5s-50 74.167 -50 123.5zM494.001 159v-1c0 -28 9.33301 -51.667 28 -71s42.334 -29 71.001 -29c28 0 51.333 9.66699 70 29s28 43.333 28 72s-9.33301 52.5 -28 71.5
s-42 28.5 -70 28.5c-28.667 0 -52.334 -9.5 -71.001 -28.5s-28 -42.833 -28 -71.5zM809.001 159v1c0 48 16.5 88.667 49.5 122s73.833 50 122.5 50s89.667 -16.667 123 -50s50 -74.333 50 -123s-16.833 -89.667 -50.5 -123s-74.5 -50 -122.5 -50s-88.667 16.5 -122 49.5
s-50 74.167 -50 123.5zM882.001 159l0.000976562 -1c0 -28 9.5 -51.667 28.5 -71s42.5 -29 70.5 -29c28.667 0 52.334 9.5 71.001 28.5s28 43.167 28 72.5c0 28.667 -9.33301 52.5 -28 71.5s-42.334 28.5 -71.001 28.5s-52.334 -9.5 -71.001 -28.5s-28 -42.833 -28 -71.5z
M621.002 740l-374 -740h-78l374 740h78z" />
    <glyph glyph-name="guilsinglleft" unicode="&#x2039;" horiz-adv-x="234" 
d="M27 280l105 187h80l-105 -187l105 -186h-80z" />
    <glyph glyph-name="guilsinglright" unicode="&#x203a;" horiz-adv-x="234" 
d="M102 467l105 -187l-105 -186h-80l105 186l-105 187h80z" />
    <glyph glyph-name="fraction" unicode="&#x2044;" horiz-adv-x="155" 
d="M-127 0l319 740h89l-319 -740h-89z" />
    <glyph glyph-name="Euro" unicode="&#x20ac;" horiz-adv-x="555" 
d="M414 343l-14 -75.9951h-201c13.333 -124 57 -186 131 -186c12.667 0 24 1.16699 34 3.5s20.833 7.16602 32.5 14.499s21.667 19.166 30 35.499s14.5 37.166 18.5 62.499h99c-5.33301 -74.667 -28.166 -128.5 -68.499 -161.5s-91.166 -49.5 -152.499 -49.5
c-134.667 0 -212 93.667 -232 281h-90l14 76h71v28c0 4.66699 0.166992 11 0.5 19s0.5 14 0.5 18h-86l14 76h77c21.333 181.333 99.666 272 234.999 272c29.333 0 56.166 -4.66699 80.499 -14s44 -21 59 -35s28.167 -30.333 39.5 -49s19.5 -36.334 24.5 -53.001
s8.5 -33.334 10.5 -50.001h-97c-6.66699 34 -20.334 60.167 -41.001 78.5s-45.667 27.5 -75 27.5c-38 0 -67.167 -14.5 -87.5 -43.5s-34.166 -73.5 -41.499 -133.5h240l-14 -76h-232v-37v-28h221z" />
    <glyph glyph-name="afii61289" unicode="&#x2113;" horiz-adv-x="528" 
d="M460 175l45.998 -43.998c-48.667 -94 -118 -141 -208 -141c-58 0 -102 17.5 -132 52.5s-47 79.5 -51 133.5c0 5.33301 -0.333008 9.33301 -1 12l-57 -46l-29 59c48 40 76.333 64.333 85 73v278c0 89.333 16.667 155.333 50 198s75.333 64 126 64
c46 0 80.833 -16.833 104.5 -50.5s35.5 -76.834 35.5 -129.501c0 -114 -71.333 -240 -214 -378v-40c0.666992 -46.667 10.834 -81.834 30.501 -105.501s44.834 -35.5 75.501 -35.5c28.667 0 55 9.66699 79 29s44 43 60 71zM214.998 557.002v-200.999
c96 108 144 201.333 144 280c0 67.333 -22.333 101 -67 101c-20.667 0 -38.667 -14.333 -54 -43s-23 -74.334 -23 -137.001z" />
    <glyph glyph-name="trademark" unicode="&#x2122;" horiz-adv-x="990" 
d="M369 296v444h104l143 -333l141 333h104v-444h-77v348l-142 -348h-54l-142 346v-346h-77zM121 296v375h-105v69h293v-69h-106v-375h-82z" />
    <glyph glyph-name="Omega" unicode="&#x2126;" horiz-adv-x="756" 
d="M197 87l-0.000976562 3.00195c-39.333 36 -71.833 80.833 -97.5 134.5s-38.5 113.5 -38.5 179.5c0 99.333 30.167 182.166 90.5 248.499s136.833 99.5 229.5 99.5c62.667 0 118.334 -16.833 167.001 -50.5s85 -76.167 109 -127.5s36 -106 36 -164
c0 -68 -13.333 -130 -40 -186s-59.334 -100.667 -98.001 -134v-3h153v-87h-266v64c40.667 26.667 74.834 67.667 102.501 123s41.5 122.333 41.5 201c0 46.667 -7.5 90.5 -22.5 131.5s-38.667 75.167 -71 102.5s-69.833 41 -112.5 41c-63.333 0 -114.5 -26.333 -153.5 -79
s-58.5 -119.334 -58.5 -200.001c0 -74 14.167 -139.667 42.5 -197s62.5 -98.333 102.5 -123v-64h-267v87h151z" />
    <glyph glyph-name="estimated" unicode="&#x212e;" horiz-adv-x="926" 
d="M889 359h-691.001c-3.33301 0 -5 -1.33301 -5 -4v-209c0 -9.33301 3 -17.333 9 -24c74 -76 161 -114 261 -114c54 0 104.667 11.333 152 34s88.333 53.667 123 93h61c-38.667 -45.333 -87.667 -81.333 -147 -108s-122.666 -40 -189.999 -40
c-117.333 0 -217.666 37.333 -300.999 112s-125 165 -125 271s41.667 196.5 125 271.5s183.666 112.5 300.999 112.5c118 0 218.667 -37.5 302 -112.5s125 -165.5 125 -271.5v-11zM731.999 387v210.001c0 10 -3.33301 18.333 -10 25c-74 72.667 -160.333 109 -259 109
c-99.333 0 -186 -37.667 -260 -113c-6.66699 -6.66699 -10 -15.334 -10 -26.001v-205c0 -4.66699 1.66699 -7 5 -7h530c2.66699 0 4 2.33301 4 7z" />
    <glyph glyph-name="partialdiff" unicode="&#x2202;" horiz-adv-x="593" 
d="M109 693l-33 78.998c52 40 113.667 60 185 60c78 0 144 -35 198 -105s81 -169 81 -297c0 -131.333 -25 -237.333 -75 -318s-120.333 -121 -211 -121c-67.333 0 -119.5 25 -156.5 75s-55.5 107.333 -55.5 172c0 81.333 22 147.333 66 198s97.667 76 161 76
c40.667 0 75.667 -10.167 105 -30.5s49.666 -41.166 60.999 -62.499h1c0.666992 6.66699 1 20.334 1 41.001c0 80.667 -18 148.167 -54 202.5s-81 81.5 -135 81.5c-53.333 0 -99.666 -17 -138.999 -51zM264 78.998h1c42.667 0 78.167 24.333 106.5 73s46.166 106 53.499 172
c-8 24.667 -24.333 48 -49 70s-53.667 33 -87 33c-39.333 0 -72.833 -18.833 -100.5 -56.5s-41.5 -82.5 -41.5 -134.5c0 -45.333 10.833 -82.833 32.5 -112.5s49.834 -44.5 84.501 -44.5z" />
    <glyph glyph-name="Delta" unicode="&#x2206;" horiz-adv-x="690" 
d="M31 0v66l254 692h125l249 -691v-67h-628zM139 86l406.001 0.000976562l-135 360c-4.66699 16.667 -15.5 48.834 -32.5 96.501s-27.833 80.167 -32.5 97.5h-4c-3.33301 -14.667 -12.833 -44.334 -28.5 -89.001s-25.834 -74.334 -30.501 -89.001z" />
    <glyph glyph-name="product" unicode="&#x220f;" horiz-adv-x="751" 
d="M724 644h-112v-746h-105v746h-264v-746h-104v746h-112v96h697v-96z" />
    <glyph glyph-name="summation" unicode="&#x2211;" horiz-adv-x="588" 
d="M566 -102h-542v69l271 351l-260 348v74h514v-91h-370v-3l236 -311l-258 -335v-3h409v-99z" />
    <glyph glyph-name="minus" unicode="&#x2212;" horiz-adv-x="600" 
d="M49 201v101h502v-101h-502z" />
    <glyph glyph-name="uni2215" unicode="&#x2215;" horiz-adv-x="155" 
d="M-127 0l319 740h89l-319 -740h-89z" />
    <glyph glyph-name="uni2219" unicode="&#x2219;" horiz-adv-x="297" 
d="M204 319v-130h-109v130h109z" />
    <glyph glyph-name="radical" unicode="&#x221a;" horiz-adv-x="616" 
d="M620 884l-236 -1037h-88l-164 478l-78 -31l-19 62l162 64l122 -367c2 -10 5.33301 -24.5 10 -43.5s8 -32.167 10 -39.5l2 -1c2 17.333 7 46.333 15 87l189 828h75z" />
    <glyph glyph-name="infinity" unicode="&#x221e;" horiz-adv-x="824" 
d="M770 307l0.00390625 -1.00098c0 -52.667 -16.333 -95.167 -49 -127.5s-71.334 -48.5 -116.001 -48.5c-32 0 -63 9.66699 -93 29s-63 51 -99 95c-34.667 -40.667 -66.667 -71.5 -96 -92.5s-63.333 -31.5 -102 -31.5c-44.667 0 -83 16.333 -115 49s-48 73.667 -48 123
c0 50.667 16.167 92.334 48.5 125.001s73.166 49 122.499 49c36.667 0 70.167 -10.667 100.5 -32s61.166 -51.333 92.499 -90c38.667 42 66.667 69.667 84 83c35.333 26 72.666 39 111.999 39c46.667 -0.666992 84.667 -16.5 114 -47.5s44 -71.5 44 -121.5zM223.004 191.999
l0.996094 -0.000976562c8 0 16 1 24 3s15 4.16699 21 6.5s13.167 6.5 21.5 12.5l18.5 13.5c4 3 10.5 8.83301 19.5 17.5l17 16.5c2.33301 2.33301 8.33301 8.83301 18 19.5s14.834 16.667 15.501 18c-14.667 18.667 -24.167 30.5 -28.5 35.5l-26.5 29.5
c-13.333 14.667 -24.166 24.334 -32.499 29.001s-19.166 9.66699 -32.499 15s-27 8 -41 8c-31.333 0 -56.166 -11 -74.499 -33s-27.5 -49.667 -27.5 -83c0 -30 10.167 -55.5 30.5 -76.5s45.833 -31.5 76.5 -31.5zM605 415.998h-0.999023
c-12.667 0 -25.334 -2.33301 -38.001 -7s-25 -12 -37 -22s-21.667 -18.5 -29 -25.5s-17 -17.333 -29 -31s-19.667 -22.167 -23 -25.5c36 -42 65.167 -71.333 87.5 -88s46.5 -25 72.5 -25c30 0 54 11.167 72 33.5s27 47.5 27 75.5c0 34.667 -9.5 62.5 -28.5 83.5
s-43.5 31.5 -73.5 31.5z" />
    <glyph glyph-name="integral" unicode="&#x222b;" horiz-adv-x="398" 
d="M377 896l-12.999 -73.0029c-13.333 6.66699 -26 10 -38 10c-22.667 0 -40.667 -8.66699 -54 -26c-21.333 -27.333 -32 -88.666 -32 -183.999c0 -55.333 2.5 -140.666 7.5 -255.999s7.5 -203.666 7.5 -264.999c0 -96.667 -14 -167.667 -42 -213
c-24.667 -44 -64.667 -66 -120 -66c-28.667 0 -53.667 6 -75 18l15 76c16 -8 31.667 -12 47 -12c20 0 36 7.33301 48 22c21.333 30 32 88 32 174c0 62 -2.5 151.833 -7.5 269.5s-7.5 205.167 -7.5 262.5c0 60 4.66699 108 14 144s24.666 65.333 45.999 88
c28.667 29.333 65.667 44 111 44c24.667 0 45 -4.33301 61 -13z" />
    <glyph glyph-name="approxequal" unicode="&#x2248;" 
d="M504 467l39.0029 -35.999c-35.333 -70 -81.666 -105 -138.999 -105c-20 0 -38.333 3.16699 -55 9.5s-39 17.833 -67 34.5c-40.667 24 -72.334 36 -95.001 36c-15.333 0 -29.5 -4.16699 -42.5 -12.5s-23.5 -17.166 -31.5 -26.499s-17.333 -22.333 -28 -39l-41 36
c16.667 31.333 38.167 56.5 64.5 75.5s54.833 28.5 85.5 28.5c10 0 19.5 -0.833008 28.5 -2.5s18 -4.33398 27 -8.00098s16 -6.83398 21 -9.50098l21 -11.5c9 -5 14.833 -8.16699 17.5 -9.5c3.33301 -2 10.166 -5.83301 20.499 -11.5s17.166 -9.33398 20.499 -11.001
s8.66602 -4.16699 15.999 -7.5s14 -5.5 20 -6.5s12.333 -1.5 19 -1.5c20 0 37.5 6.33301 52.5 19s30.5 32.334 46.5 59.001zM504.003 278.001l39 -35.998c-36 -69.333 -82.667 -104 -140 -104c-19.333 0 -37.166 3.16699 -53.499 9.5s-38.833 17.5 -67.5 33.5
c-39.333 24.667 -71 37 -95 37c-22 0 -40.333 -6.66699 -55 -20s-30.334 -33 -47.001 -59l-41 36c16.667 32 38.167 57.5 64.5 76.5s54.833 28.5 85.5 28.5c10 0 19.5 -0.833008 28.5 -2.5s18 -4.33398 27 -8.00098s16.167 -6.83398 21.5 -9.50098s12.333 -6.5 21 -11.5
s14.334 -8.16699 17.001 -9.5s9 -4.83301 19 -10.5l20 -11.5c3.33301 -2 8.83301 -4.66699 16.5 -8s14.667 -5.5 21 -6.5s13.166 -1.5 20.499 -1.5c20 0 37.167 6.16699 51.5 18.5s29.833 31.833 46.5 58.5z" />
    <glyph glyph-name="notequal" unicode="&#x2260;" 
d="M425 538l-44 -99h155v-64h-180l-67 -149h247v-64h-272l-55 -123l-51 22l46 101h-152v64h177l67 149h-244v64h269l54 121z" />
    <glyph glyph-name="lessequal" unicode="&#x2264;" 
d="M534 103l-476 238v69l475 237v-76l-409 -194v-2l410 -196v-76zM537 -3h-484v65h484v-65z" />
    <glyph glyph-name="greaterequal" unicode="&#x2265;" 
d="M60 647l475 -238v-68l-475 -238v76l409 195v2l-409 195v76zM536 -3h-482v65h482v-65z" />
    <glyph glyph-name="lozenge" unicode="&#x25ca;" horiz-adv-x="616" 
d="M560 369l-212 -419h-85l-207 419l211 420h85zM466 367l-137 276c-10 25.333 -16.667 45 -20 59h-3c-4 -19.333 -10.667 -39 -20 -59l-136 -271l137 -279c8.66699 -20 15 -39 19 -57h4c4.66699 21.333 10.667 40 18 56z" />
    <glyph glyph-name=".null" horiz-adv-x="0" 
 />
    <glyph glyph-name="nonmarkingreturn" horiz-adv-x="333" 
 />
    </font>
</defs>
</svg>
